<svg xmlns="http://www.w3.org/2000/svg" xmlns:xlink="http://www.w3.org/1999/xlink" width="40" height="40" viewBox="0 0 40 40"><defs><style>.a,.c{stroke:#6372f4;}.a{stroke-miterlimit:10;fill:url(#a);}.b{fill:#6372f4;}.c,.e{fill:none;}.c{stroke-width:1.5px;}.d{stroke:none;}</style><linearGradient id="a" x1="0.796" y1="0.106" x2="-0.11" y2="1.382" gradientUnits="objectBoundingBox"><stop offset="0" stop-color="#fff"/><stop offset="1" stop-color="#cce0ff"/></linearGradient></defs><g transform="translate(-149.092 -265.092)"><g class="a" transform="translate(149.092 265.092)"><circle class="d" cx="20" cy="20" r="20"/><circle class="e" cx="20" cy="20" r="19.5"/></g><g transform="translate(0.5 0.5)"><g transform="translate(159.092 275.092)"><g transform="translate(3 4)"><path class="b" d="M207.629,314.168c-.745,0-1.49,0-2.234,0-.519,0-.841-.282-.835-.7s.325-.69.849-.691q2.254,0,4.508,0c.546,0,.861.276.85.728-.011.428-.314.665-.864.667C209.145,314.17,208.387,314.168,207.629,314.168Z" transform="translate(-198.327 -311.409)"/><path class="b" d="M128.609,349.5c.544-.549,1.008-1.023,1.478-1.492.391-.389.815-.427,1.116-.108s.243.709-.133,1.088q-.914.921-1.834,1.835a.729.729,0,0,1-1.205-.007c-.4-.392-.8-.785-1.184-1.186a.715.715,0,0,1-.09-1.059c.3-.309.71-.28,1.084.1C128.094,348.918,128.327,349.191,128.609,349.5Z" transform="translate(-126.561 -343.534)"/><path class="b" d="M128.611,401.45c.559-.569,1.044-1.079,1.549-1.569a.667.667,0,0,1,1.172.237.928.928,0,0,1-.19.716c-.638.7-1.317,1.354-1.994,2.013a.676.676,0,0,1-1.029,0q-.678-.647-1.325-1.328a.7.7,0,0,1-.022-1.029.674.674,0,0,1,1,.055C128.044,400.817,128.3,401.111,128.611,401.45Z" transform="translate(-126.553 -391.333)"/><path class="b" d="M128.6,297.548c.559-.567,1.045-1.076,1.549-1.565a.666.666,0,0,1,1.171.232.922.922,0,0,1-.184.716c-.637.7-1.316,1.354-1.993,2.012a.687.687,0,0,1-1.06-.013q-.662-.636-1.3-1.3a.693.693,0,1,1,.974-.982C128.037,296.917,128.288,297.211,128.6,297.548Z" transform="translate(-126.546 -295.733)"/><path class="b" d="M207.652,366.127c-.758,0-1.516,0-2.274,0-.5,0-.811-.268-.816-.677-.005-.431.311-.707.829-.708q2.274,0,4.548,0c.524,0,.833.267.832.7s-.307.684-.845.685c-.758,0-1.516,0-2.274,0Z" transform="translate(-198.329 -359.226)"/><path class="b" d="M207.671,418.1c-.771,0-1.542,0-2.314,0-.5,0-.8-.276-.8-.691s.312-.684.808-.685q2.294,0,4.587,0c.5,0,.8.258.813.679.01.437-.293.7-.825.7-.758,0-1.516,0-2.274,0Z" transform="translate(-198.328 -407.05)"/></g><g class="c"><rect class="d" width="19" height="19" rx="5"/><rect class="e" x="0.75" y="0.75" width="17.5" height="17.5" rx="4.25"/></g></g></g></g></svg>