<svg xmlns="http://www.w3.org/2000/svg" xmlns:xlink="http://www.w3.org/1999/xlink" width="40" height="40" viewBox="0 0 40 40"><defs><style>.a{stroke:#ff4b4b;stroke-miterlimit:10;fill:url(#a);}.b{fill:#ff4b4b;}.c{stroke:none;}.d{fill:none;}</style><linearGradient id="a" x1="0.796" y1="0.106" x2="-0.11" y2="1.382" gradientUnits="objectBoundingBox"><stop offset="0" stop-color="#fff"/><stop offset="1" stop-color="#ffe3c3"/></linearGradient></defs><g transform="translate(-149.092 -265.092)"><g class="a" transform="translate(149.092 265.092)"><circle class="c" cx="20" cy="20" r="20"/><circle class="d" cx="20" cy="20" r="19.5"/></g><g transform="translate(160.092 274.092)"><path class="b" d="M87.9,23.894l-1.19-2.234V16.143a7.506,7.506,0,0,0-5.414-7.2V8.079a2.079,2.079,0,1,0-4.158,0v.865a7.507,7.507,0,0,0-5.414,7.2V21.66l-1.19,2.234a1.375,1.375,0,0,0,1.214,2.022h4.725a2.748,2.748,0,0,0,5.488,0h4.726A1.375,1.375,0,0,0,87.9,23.894ZM78.233,8.079a.979.979,0,1,1,1.958,0v.635a7.526,7.526,0,0,0-1.958,0ZM72.82,16.143a6.393,6.393,0,1,1,12.786,0V21.2H72.82ZM79.213,27.41a1.651,1.651,0,0,1-1.641-1.494h3.282A1.651,1.651,0,0,1,79.213,27.41Zm7.705-2.728a.271.271,0,0,1-.236.134H71.743a.275.275,0,0,1-.243-.4l1.122-2.106H85.8l1.122,2.106A.271.271,0,0,1,86.918,24.682Z" transform="translate(-70.366 -6)"/></g></g></svg>