<svg xmlns="http://www.w3.org/2000/svg" xmlns:xlink="http://www.w3.org/1999/xlink" width="36" height="35" viewBox="0 0 36 35">
  <defs>
    <linearGradient id="linear-gradient" x1="0.829" y1="0.111" x2="0.229" y2="0.929" gradientUnits="objectBoundingBox">
      <stop offset="0" stop-color="#ffb960"/>
      <stop offset="1" stop-color="#ff6f79"/>
    </linearGradient>
  </defs>
  <g id="centers" transform="translate(-6398.225 -2521.627)">
    <g id="Group_10286" data-name="Group 10286" transform="translate(6398.624 2521.819)">
      <ellipse id="Ellipse_3" data-name="Ellipse 3" cx="18" cy="17.5" rx="18" ry="17.5" transform="translate(-0.398 -0.192)" fill="url(#linear-gradient)"/>
    </g>
    <g id="centers-icon" transform="translate(6406.592 2529.396)">
      <path id="Path_35037" data-name="Path 35037" d="M20.82,16h-4.5a.321.321,0,0,0-.321.321v4.5a.321.321,0,0,0,.321.321h4.5a.321.321,0,0,0,.321-.321v-4.5A.321.321,0,0,0,20.82,16Zm-2.892.643h1.285v.964H17.928ZM20.5,20.5H16.643V16.643h.643v1.285a.321.321,0,0,0,.321.321h1.928a.321.321,0,0,0,.321-.321V16.643H20.5Z" transform="translate(-16 -16)" fill="#fff"/>
      <path id="Path_35038" data-name="Path 35038" d="M96,96h.643v.643H96Z" transform="translate(-92.787 -92.787)" fill="#fff"/>
      <path id="Path_35039" data-name="Path 35039" d="M20.82,368h-4.5a.321.321,0,0,0-.321.321v4.5a.321.321,0,0,0,.321.321h4.5a.321.321,0,0,0,.321-.321v-4.5A.321.321,0,0,0,20.82,368Zm-2.892.643h1.285v.964H17.928ZM20.5,372.5H16.643v-3.856h.643v1.285a.321.321,0,0,0,.321.321h1.928a.321.321,0,0,0,.321-.321v-1.285H20.5Z" transform="translate(-16 -353.862)" fill="#fff"/>
      <path id="Path_35040" data-name="Path 35040" d="M96,448h.643v.643H96Z" transform="translate(-92.787 -430.649)" fill="#fff"/>
      <path id="Path_35041" data-name="Path 35041" d="M372.82,16h-4.5a.321.321,0,0,0-.321.321v4.5a.321.321,0,0,0,.321.321h4.5a.321.321,0,0,0,.321-.321v-4.5A.321.321,0,0,0,372.82,16Zm-2.892.643h1.285v.964h-1.285ZM372.5,20.5h-3.856V16.643h.643v1.285a.321.321,0,0,0,.321.321h1.928a.321.321,0,0,0,.321-.321V16.643h.643Z" transform="translate(-353.862 -16)" fill="#fff"/>
      <path id="Path_35042" data-name="Path 35042" d="M448,96h.643v.643H448Z" transform="translate(-430.649 -92.787)" fill="#fff"/>
      <path id="Path_35043" data-name="Path 35043" d="M372.82,368h-4.5a.321.321,0,0,0-.321.321v4.5a.321.321,0,0,0,.321.321h4.5a.321.321,0,0,0,.321-.321v-4.5A.321.321,0,0,0,372.82,368Zm-2.892.643h1.285v.964h-1.285Zm2.57,3.856h-3.856v-3.856h.643v1.285a.321.321,0,0,0,.321.321h1.928a.321.321,0,0,0,.321-.321v-1.285h.643Z" transform="translate(-353.862 -353.862)" fill="#fff"/>
      <path id="Path_35044" data-name="Path 35044" d="M448,448h.643v.643H448Z" transform="translate(-430.649 -430.649)" fill="#fff"/>
      <path id="Path_35045" data-name="Path 35045" d="M160.033,152h-7.712a.321.321,0,0,0-.321.321v1.285a.321.321,0,0,0,.321.321v6.748a.321.321,0,0,0,.321.321h7.069a.321.321,0,0,0,.321-.321v-6.748a.321.321,0,0,0,.321-.321v-1.285A.321.321,0,0,0,160.033,152Zm-7.39.643h7.069v.643h-7.069Zm5.141,3.856H154.57v-.643h3.213Zm-3.213.643h3.213v.643H154.57Zm0,1.285h3.213v.643H154.57Zm0,1.285h3.213v.643H154.57Zm4.82.643h-.964v-4.82a.321.321,0,0,0-.321-.321h-3.856a.321.321,0,0,0-.321.321v4.82h-.964v-6.426h6.426Z" transform="translate(-146.538 -146.538)" fill="#fff"/>
      <path id="Path_35046" data-name="Path 35046" d="M336.046,75.728c-.182-.105-.369-.2-.558-.294l-.277.58c.174.083.347.174.514.271Z" transform="translate(-322.39 -73.047)" fill="#fff"/>
      <path id="Path_35047" data-name="Path 35047" d="M159.689,56.65v2.563h.643V56.649a7.338,7.338,0,0,1,2.417.517l.238-.6a8.05,8.05,0,0,0-6.993.505l.322.556A7.382,7.382,0,0,1,159.689,56.65Z" transform="translate(-150.371 -54.393)" fill="#fff"/>
      <path id="Path_35048" data-name="Path 35048" d="M76.285,156.316l-.556-.322c-.105.182-.2.369-.294.558l.58.277C76.1,156.656,76.188,156.483,76.285,156.316Z" transform="translate(-73.047 -150.371)" fill="#fff"/>
      <path id="Path_35049" data-name="Path 35049" d="M57.166,182.126l-.6-.238a8.05,8.05,0,0,0,.505,6.993l.556-.322a7.382,7.382,0,0,1-.981-3.374h2.884v-.643H56.649A7.337,7.337,0,0,1,57.166,182.126Z" transform="translate(-54.393 -175.225)" fill="#fff"/>
      <path id="Path_35050" data-name="Path 35050" d="M155.994,415.945c.182.105.369.2.558.294l.277-.58c-.174-.083-.347-.174-.514-.271Z" transform="translate(-150.371 -399.348)" fill="#fff"/>
      <path id="Path_35051" data-name="Path 35051" d="M185.186,393.92V392h-.643v1.921a7.339,7.339,0,0,1-2.417-.517l-.238.6a8.051,8.051,0,0,0,6.993-.505l-.322-.556A7.382,7.382,0,0,1,185.186,393.92Z" transform="translate(-175.225 -376.898)" fill="#fff"/>
      <path id="Path_35052" data-name="Path 35052" d="M415.389,335.724l.556.322c.105-.182.2-.37.294-.558l-.58-.277C415.577,335.385,415.485,335.557,415.389,335.724Z" transform="translate(-399.348 -322.39)" fill="#fff"/>
      <path id="Path_35053" data-name="Path 35053" d="M370.368,162.749l.6.238a8.051,8.051,0,0,0-.505-6.993l-.556.322a7.381,7.381,0,0,1,.981,3.374H368v.643h2.885A7.337,7.337,0,0,1,370.368,162.749Z" transform="translate(-353.862 -150.371)" fill="#fff"/>
    </g>
  </g>
</svg>
