<svg id="cloud" xmlns="http://www.w3.org/2000/svg" xmlns:xlink="http://www.w3.org/1999/xlink" width="160.468" height="116.689" viewBox="0 0 160.468 116.689">
  <defs>
    <linearGradient id="linear-gradient" y1="0.5" x2="1" y2="0.5" gradientUnits="objectBoundingBox">
      <stop offset="0" stop-color="#36cee5"/>
      <stop offset="1" stop-color="#676af6"/>
    </linearGradient>
  </defs>
  <path id="Path_35535" data-name="Path 35535" d="M-16.437,45.477A100.613,100.613,0,0,0-13.923,55.6C-8.69,70.254,5.684,80.9,21.228,80.671c9.921-.15,19.845-.028,29.768-.028h1.986V45.851H43.876c-2.024,0-4.189.337-5.342-1.975-1.111-2.229.369-3.762,1.522-5.358Q50.189,24.489,60.334,10.47c2.283-3.156,4.687-3.157,6.965-.007q10.415,14.4,20.822,28.812a13.183,13.183,0,0,1,.789,1.166,3.444,3.444,0,0,1-2.938,5.373c-3.183.1-6.371.031-9.556.036H74.632V80.642h1.835c11.385,0,22.771-.057,34.156.016,11.307.073,19.993-4.915,26.535-13.8a33.366,33.366,0,0,0,6.526-25.114,31.941,31.941,0,0,0-13.4-22.122,10.7,10.7,0,0,0-1.3-.867,1.437,1.437,0,0,1-.779-2.009,22.178,22.178,0,0,0-22.872-28.566,54.808,54.808,0,0,0-5.909,1.034c-1.347-2.158-2.6-4.57-4.226-6.7C84.335-31.744,69.959-38.064,52.18-35.431A43.712,43.712,0,0,0,15.453.178c-.552,3.007-1.593,4.051-4.463,4.975C-4.682,10.2-13.421,21.306-16.11,37.388c-.084.506-.217,1-.327,1.507Z" transform="translate(16.437 36.015)" fill="url(#linear-gradient)"/>
</svg>
