<?xml version="1.0" standalone="no"?>
<!DOCTYPE svg PUBLIC "-//W3C//DTD SVG 20010904//EN"
 "http://www.w3.org/TR/2001/REC-SVG-20010904/DTD/svg10.dtd">
<svg version="1.0" xmlns="http://www.w3.org/2000/svg"
 width="512.000000pt" height="512.000000pt" viewBox="0 0 512.000000 512.000000"
 preserveAspectRatio="xMidYMid meet">

<g transform="translate(0.000000,512.000000) scale(0.100000,-0.100000)"
fill="#000000" stroke="none">
<path d="M1685 4902 c-11 -1 -340 -199 -730 -440 -640 -394 -712 -441 -728
-474 -16 -32 -17 -43 -7 -74 10 -31 62 -73 392 -321 315 -236 378 -287 367
-298 -8 -7 -176 -134 -374 -282 -198 -148 -367 -278 -375 -288 -21 -25 -18
-89 5 -120 11 -14 202 -137 425 -274 l405 -249 5 -481 c5 -464 6 -481 25 -499
11 -11 337 -214 725 -453 576 -354 711 -433 740 -433 29 0 164 79 740 433 388
239 714 442 725 453 19 18 20 35 25 500 l5 481 380 234 c486 299 452 275 466
321 9 32 8 44 -5 71 -12 21 -129 116 -379 302 -199 150 -368 277 -376 284 -11
11 52 62 367 298 330 248 382 290 392 321 10 31 9 42 -7 74 -16 33 -86 79
-703 459 -377 233 -704 432 -727 443 -28 15 -50 19 -69 14 -15 -4 -207 -141
-426 -306 -219 -164 -403 -298 -408 -298 -5 0 -189 134 -408 298 -219 165
-409 301 -423 303 -13 2 -33 3 -44 1z m351 -483 l333 -252 -591 -363 c-325
-200 -594 -364 -598 -364 -3 0 -156 112 -338 249 l-332 249 592 365 c326 201
595 366 597 366 2 1 154 -112 337 -250z m1979 -115 l595 -366 -332 -249 c-182
-137 -335 -249 -338 -249 -4 0 -274 164 -600 364 l-592 365 334 250 c183 138
334 251 335 251 2 0 271 -165 598 -366z m-857 -638 c508 -313 580 -360 565
-371 -10 -7 -276 -171 -591 -364 l-572 -353 -590 363 c-324 200 -587 366 -584
369 21 21 1162 718 1175 717 8 -1 277 -163 597 -361z m-1395 -848 c315 -193
580 -357 590 -363 15 -11 -24 -43 -317 -263 l-334 -251 -594 365 c-326 201
-594 367 -595 368 -5 4 653 495 665 495 7 1 271 -157 585 -351z m2517 105
c181 -136 328 -248 327 -249 -1 -2 -269 -167 -596 -368 l-593 -365 -335 251
c-227 171 -330 254 -321 259 7 5 272 168 588 363 316 195 581 355 588 356 6 0
160 -111 342 -247z m-1313 -908 c430 -323 435 -326 496 -294 21 11 308 187
355 217 l22 14 0 -360 0 -360 -636 -391 c-349 -215 -639 -391 -644 -391 -5 0
-295 176 -644 391 l-636 391 0 359 0 359 63 -39 c34 -21 122 -75 195 -119 105
-65 140 -82 170 -82 35 0 77 29 443 304 222 168 405 305 407 305 1 1 185 -136
409 -304z"/>
</g>
</svg>
