<svg xmlns="http://www.w3.org/2000/svg" width="36" height="36" viewBox="0 0 36 36">
  <g id="Group_82337" data-name="Group 82337" transform="translate(-1481 -755)">
    <circle id="Ellipse_3" data-name="Ellipse 3" cx="18" cy="18" r="18" transform="translate(1481 755)" fill="#fdb2b2" opacity="0.496"/>
    <g id="Group_81906" data-name="Group 81906" transform="translate(1490.811 761.414)">
      <path id="Path_35951" data-name="Path 35951" d="M2006.38,2861.9a.64.64,0,0,1-.321-.641c.011-.92,0-1.839,0-2.792h-.274c-1.84,0-3.68,0-5.52-.006a.809.809,0,0,1-.453-.142c-.182-.135-.172-.353-.022-.615q.908-1.577,1.819-3.152c.214-.371.427-.743.657-1.142-.109-.007-.195-.009-.279-.02a.441.441,0,0,1-.364-.6,1.685,1.685,0,0,1,.125-.24l2.587-4.483c.037-.065.071-.131.113-.21a1.757,1.757,0,0,1-.278-.084.444.444,0,0,1-.158-.659c.281-.5.571-.993.857-1.488.3-.522.607-1.042.9-1.568a.8.8,0,0,0,.1-.339c.02-.369.028-.739.026-1.108a.482.482,0,0,0-.087-.265c-.24-.329-.494-.647-.741-.971-.291-.382-.185-.7.278-.836.382-.114.768-.219,1.147-.343a.558.558,0,0,0,.259-.19c.24-.329.462-.67.7-1a.467.467,0,0,1,.854,0c.233.333.456.675.7,1a.558.558,0,0,0,.258.19c.379.124.764.229,1.147.343.464.138.569.454.278.836-.242.318-.493.63-.726.954a.847.847,0,0,0-.1.306,1.712,1.712,0,0,0,0,.18,3.05,3.05,0,0,0,.583,2.073c.454.692.838,1.43,1.251,2.148.25.436.116.724-.4.814.046.084.086.162.13.237q1.3,2.261,2.609,4.522c.261.452.086.77-.431.788-.029,0-.058,0-.116.01.046.084.083.155.122.224l2.292,3.975c.03.052.062.1.089.157a.447.447,0,0,1-.417.7c-.814.006-1.629,0-2.443,0h-3.442v.258c0,.845-.007,1.689,0,2.534a.64.64,0,0,1-.321.641Zm-3.542-9.408h5.578c.408,0,.627.16.63.456s-.22.449-.632.449c-1.621,0-3.243,0-4.864,0a.33.33,0,0,0-.337.188c-.717,1.256-1.443,2.507-2.165,3.76-.036.063-.066.128-.1.2h13.864c-.048-.089-.082-.155-.119-.219l-1.91-3.307c-.147-.255-.295-.509-.439-.764-.235-.415-.061-.736.41-.76.043,0,.086-.007.146-.011-.021-.047-.033-.082-.051-.113q-1.271-2.2-2.539-4.405a.264.264,0,0,0-.278-.133c-1.433,0-2.865,0-4.3,0a.314.314,0,0,0-.317.184q-1.223,2.138-2.461,4.268C2002.919,2852.336,2002.889,2852.4,2002.838,2852.492Zm2.352-5.58h5.361a.814.814,0,0,0-.039-.1c-.458-.8-.915-1.594-1.38-2.386a.416.416,0,0,0-.206-.154,3.277,3.277,0,0,0-1.043-.343,3.1,3.1,0,0,0-1.043.336.563.563,0,0,0-.26.22c-.433.732-.856,1.471-1.281,2.209C2005.263,2846.76,2005.233,2846.827,2005.19,2846.911Zm4.437-5.654c-.286-.084-.528-.163-.775-.225a.826.826,0,0,1-.529-.387c-.135-.22-.291-.428-.45-.661-.159.231-.306.422-.428.628a.885.885,0,0,1-.6.433c-.237.054-.466.138-.722.217.183.239.336.453.5.654a.815.815,0,0,1,.186.606c-.015.254,0,.51,0,.788.247-.086.5-.164.738-.261a.834.834,0,0,1,.656,0c.24.1.489.174.731.258,0-.3-.02-.569.007-.837a1.275,1.275,0,0,1,.164-.518A8.1,8.1,0,0,1,2009.627,2841.258Zm-2.653,19.721h1.79v-2.494h-1.79Z" transform="translate(-1999.679 -2838.727)" fill="#ff4b4b" stroke="rgba(0,0,0,0)" stroke-width="1"/>
      <path id="Path_35952" data-name="Path 35952" d="M2232.663,3143.52a.451.451,0,1,1-.44-.453A.452.452,0,0,1,2232.663,3143.52Z" transform="translate(-2221.257 -3129.293)" fill="#ff4b4b" stroke="rgba(0,0,0,0)" stroke-width="1"/>
    </g>
  </g>
</svg>
