<svg xmlns="http://www.w3.org/2000/svg" width="52.862" height="45.999" viewBox="0 0 52.862 45.999">
  <path id="google-drive" d="M174.725,104.992l-.063,0c-.036,0-.072,0-.108.009s-.057.011-.085.018l-.054.009-.031.009-.059.023c-.03.012-.061.026-.09.041l-.031.013c-.026.012-.051.026-.076.041l-.013.009a1.084,1.084,0,0,0-.09.063l-.049.04c-.02.016-.04.032-.059.05l-.049.058-.009.009-.031.041c-.022.027-.043.056-.063.085l-.009.013-.027.041L157.64,133.345a1.147,1.147,0,0,0,0,1.149l9.194,15.922a1.149,1.149,0,0,0,1.261.543h31.729a1.148,1.148,0,0,0,.992-.57l9.378-16.089a1.139,1.139,0,0,0,.112-.279q.008-.022.014-.045a1.151,1.151,0,0,0-.036-.633c0-.013-.009-.027-.014-.041s-.017-.045-.027-.067l0-.009c-.014-.027-.029-.054-.045-.081l-.027-.049-.009-.014-16.013-27.518a1.15,1.15,0,0,0-.992-.575Zm2,2.3h15.761L207.2,132.573h-15.73Zm-2,1.149,7.82,13.544L176.314,132.8a1.149,1.149,0,0,0-.448.777L167.83,147.54l-7.865-13.62Zm9.2,15.757,4.884,8.377H179.1Zm-6.15,10.675H207.2l-8.04,13.79H169.837Z" transform="translate(-157.485 -104.991)" fill="#616060"/>
</svg>
