<svg xmlns="http://www.w3.org/2000/svg" xmlns:xlink="http://www.w3.org/1999/xlink" width="37" height="36" viewBox="0 0 37 36">
  <defs>
    <linearGradient id="linear-gradient" x1="0.135" y1="1" x2="0.833" y2="0.062" gradientUnits="objectBoundingBox">
      <stop offset="0" stop-color="#ccb639"/>
      <stop offset="1" stop-color="#f6d51f"/>
    </linearGradient>
  </defs>
  <g id="Lesson" transform="translate(-116.366 -1165.877)">
    <g id="Group_10286" data-name="Group 10286" transform="translate(116.556 1165.877)">
      <ellipse id="Ellipse_3" data-name="Ellipse 3" cx="18.5" cy="18" rx="18.5" ry="18" transform="translate(-0.19 0)" fill="url(#linear-gradient)"/>
    </g>
    <g id="Lesson-icon" transform="translate(126.258 1175.377)">
      <path id="Path_35021" data-name="Path 35021" d="M17.066,10.343V0h-9V5.241H4.694a2.113,2.113,0,1,0-.723,0H2.516A2.52,2.52,0,0,0,0,7.765v4.676H1.992v4.626H7.041V8.29H8.069v2.054h4v5.722H10.084v1h4.8v-1H13.072V10.343ZM3.219,3.159A1.113,1.113,0,1,1,4.332,4.272,1.115,1.115,0,0,1,3.219,3.159Zm-.2,12.873V8.35h-1v3.041H1.041V7.765A1.477,1.477,0,0,1,2.516,6.29h7.836v.951H5.992v8.791H5.016v-3.7h-1v3.7ZM9.06,8.29H11.4V5.9l3.342-3.148-.686-.728L10.644,5.241H9.06V.976h7.024V9.353H9.06Z" transform="translate(0)" fill="#fff"/>
    </g>
  </g>
</svg>
