<svg xmlns="http://www.w3.org/2000/svg" xmlns:xlink="http://www.w3.org/1999/xlink" width="36" height="36" viewBox="0 0 36 36">
  <defs>
    <linearGradient id="linear-gradient" x1="0.829" y1="0.111" x2="0.229" y2="0.929" gradientUnits="objectBoundingBox">
      <stop offset="0" stop-color="#ff7979"/>
      <stop offset="1" stop-color="#ff00a7"/>
    </linearGradient>
  </defs>
  <g id="Lunch" transform="translate(-728.727 -169.727)">
    <g id="Group_2" data-name="Group 2" transform="translate(729 170)">
      <circle id="Ellipse_3" data-name="Ellipse 3" cx="18" cy="18" r="18" transform="translate(-0.273 -0.273)" fill="url(#linear-gradient)"/>
    </g>
    <g id="lunch-icon" transform="translate(738.475 178.252)">
      <path id="lunch-icon-2" data-name="lunch-icon" d="M3.278,19.146a.421.421,0,0,0,.045,0H7.965a.346.346,0,0,0,.05,0,1.979,1.979,0,0,0,1.634-.991,2.566,2.566,0,0,0,1.831.994,2.887,2.887,0,0,0,.94-.141,2.277,2.277,0,0,1,1.385,0,2.887,2.887,0,0,0,.94.141A3.062,3.062,0,0,0,17.077,17.5c1.033-1.556,1.735-4.15,1-5.89A3.291,3.291,0,0,0,15.19,9.627a3.194,3.194,0,0,0-1.3.264,2.637,2.637,0,0,1-.481.152A2.756,2.756,0,0,0,12.2,7.99a.32.32,0,1,0-.341.541,2.1,2.1,0,0,1,.906,1.5,2.859,2.859,0,0,1-.438-.144,3.205,3.205,0,0,0-1.3-.264,2.911,2.911,0,0,0-1.09.237V8.787a.151.151,0,0,0,0-.018v-.89a3.365,3.365,0,0,0-.428-1.667c-.149-.269-.293-.541-.439-.813-.232-.433-.463-.867-.709-1.293a1.994,1.994,0,0,1-.288-1.087A1.558,1.558,0,0,0,9.02,1.573,1.358,1.358,0,0,0,7.745.077.344.344,0,0,0,7.639.059L3.574.066A1.376,1.376,0,0,0,2.268,1.573,1.57,1.57,0,0,0,3.2,3.018a1.852,1.852,0,0,1-.272,1.087c-.246.426-.477.86-.709,1.294-.145.272-.289.544-.438.813A3.351,3.351,0,0,0,1.348,7.88c0,.3,0,.595,0,.892,0,.006,0,.01,0,.015v5.388s0,.008,0,.012l0,2.716A2.026,2.026,0,0,0,3.278,19.146ZM9.3,10.217a3.24,3.24,0,0,0-1.153,1.4,4.713,4.713,0,0,0-.275,2.241H1.988v-.374q0-2.187,0-4.374H9.3Zm-1.333,8.29-.017,0H3.338l-.017,0a1.394,1.394,0,0,1-1.337-1.6l0-2.409H7.961a8.349,8.349,0,0,0,1.183,3.011c.018.027.037.05.054.076A1.333,1.333,0,0,1,7.965,18.508ZM12.1,10.488a2.429,2.429,0,0,0,2.026,0,2.583,2.583,0,0,1,1.066-.221,2.629,2.629,0,0,1,2.3,1.6c.624,1.479.01,3.85-.944,5.288-.573.863-1.229,1.358-1.8,1.358a2.257,2.257,0,0,1-.758-.114,2.9,2.9,0,0,0-1.75,0,2.281,2.281,0,0,1-.758.114c-.572,0-1.227-.494-1.8-1.357-.954-1.438-1.569-3.81-.946-5.289a2.638,2.638,0,0,1,1.01-1.189l.015-.009a2.447,2.447,0,0,1,1.273-.4A2.574,2.574,0,0,1,12.1,10.488ZM3.641.7l.027,0h3.95l.027,0c.315.034.733.16.733.871a.914.914,0,0,1-.492.821H3.4a.912.912,0,0,1-.493-.821C2.908.862,3.327.736,3.641.7ZM2.337,6.52c.15-.272.3-.546.443-.82.228-.428.456-.855.7-1.275a2.52,2.52,0,0,0,.356-1.392H7.453a2.51,2.51,0,0,0,.355,1.392c.243.42.471.847.7,1.275.147.274.293.548.443.82A2.736,2.736,0,0,1,9.3,7.879v.589H1.988c0-.2,0-.392,0-.589A2.74,2.74,0,0,1,2.337,6.52Z" transform="translate(-1.345 -0.059)" fill="#fff" stroke="#fff" stroke-width="0.3"/>
    </g>
  </g>
</svg>
