<svg xmlns="http://www.w3.org/2000/svg" xmlns:xlink="http://www.w3.org/1999/xlink" width="36.73" height="36.521" viewBox="0 0 36.73 36.521">
  <defs>
    <linearGradient id="linear-gradient" x1="0.218" y1="0.923" x2="0.779" y2="0.106" gradientUnits="objectBoundingBox">
      <stop offset="0" stop-color="#f02428"/>
      <stop offset="1" stop-color="#ff9697"/>
    </linearGradient>
  </defs>
  <g id="name_to_face" data-name="name to face" transform="translate(-746 -752.068)">
    <g id="Group_10286" data-name="Group 10286" transform="translate(746 752.068)">
      <ellipse id="Ellipse_3" data-name="Ellipse 3" cx="18.365" cy="18.261" rx="18.365" ry="18.261" transform="translate(0 0)" fill="url(#linear-gradient)"/>
    </g>
    <g id="baby" transform="translate(754.765 761.251)">
      <path id="Path_35022" data-name="Path 35022" d="M16.96,18.794h-.379a7.626,7.626,0,0,0-6.465-4.8,2.413,2.413,0,0,1,2.353-1.881.557.557,0,1,0,0-1.113,3.524,3.524,0,0,0-3.049,1.754,2.778,2.778,0,0,0-2.147-1.012.557.557,0,0,0,0,1.113A1.67,1.67,0,0,1,8.858,14a7.626,7.626,0,0,0-6.438,4.8H2.041A2.041,2.041,0,0,0,2,22.875a7.608,7.608,0,0,0,14.994,0,2.041,2.041,0,0,0-.037-4.081ZM1.893,21.577c0,.058,0,.116,0,.174a.928.928,0,0,1,.146-1.844h.037A7.606,7.606,0,0,0,1.893,21.577ZM9.5,28.072A6.495,6.495,0,1,1,16,21.577,6.5,6.5,0,0,1,9.5,28.072Zm7.606-6.321c0-.058,0-.116,0-.174a7.606,7.606,0,0,0-.185-1.67h.037a.928.928,0,0,1,.146,1.844Z" transform="translate(0 -11)" fill="#fff"/>
      <path id="Path_35023" data-name="Path 35023" d="M133.564,222.469a.557.557,0,0,0,.795.064.577.577,0,0,0,.04-.8,1.944,1.944,0,0,0-3.04,0,.577.577,0,0,0,.04.8.557.557,0,0,0,.795-.064.838.838,0,0,1,1.369,0Z" transform="translate(-126.347 -213.206)" fill="#fff"/>
      <path id="Path_35024" data-name="Path 35024" d="M292.9,221a1.987,1.987,0,0,0-1.535.749.587.587,0,0,0,0,.731.557.557,0,0,0,.847-.012.837.837,0,0,1,1.363-.007.567.567,0,0,0,.788.082.557.557,0,0,0,.076-.785A1.989,1.989,0,0,0,292.9,221Z" transform="translate(-280.429 -213.206)" fill="#fff"/>
      <path id="Path_35025" data-name="Path 35025" d="M167.495,321h-5.938a.557.557,0,0,0-.557.557,3.526,3.526,0,1,0,7.051,0A.557.557,0,0,0,167.495,321Zm-2.969,2.969a2.416,2.416,0,0,1-2.347-1.856h4.695A2.417,2.417,0,0,1,164.526,323.969Z" transform="translate(-155.025 -309.495)" fill="#fff"/>
    </g>
  </g>
</svg>
