<svg xmlns="http://www.w3.org/2000/svg" width="50" height="46" viewBox="0 0 50 46">
  <path id="one-drive" d="M191.823,121.741c-.057,0-.115,0-.172.007A16,16,0,0,0,178,113.578c-6.711,0-12.675,4.5-15.086,11.238a12.114,12.114,0,0,0-7.364,17.055,12.864,12.864,0,0,0-1.292,5.588,12.112,12.112,0,0,0,11.777,12.119,5.024,5.024,0,0,0,.654-.026l.013,0c.11.009.237.028.315.028l25.087-.025a4.684,4.684,0,0,0,.685-.057l.017,0c.015,0,.029,0,.045,0s.015-.007.024-.009c6.388-.56,11.382-6.412,11.382-13.38a14.362,14.362,0,0,0-1.086-5.442,14.391,14.391,0,0,0,1.086-5.466c0-7.417-5.577-13.452-12.431-13.452Zm-27.92,5.284a1.051,1.051,0,0,0,.439-.2c.018-.012.029-.033.047-.047a1.2,1.2,0,0,0,.342-.491c.01-.026.035-.038.043-.064C166.714,120.107,172.027,116,178,116a13.876,13.876,0,0,1,12.106,7.584,1.177,1.177,0,0,0,.221.272c.015.014.024.033.039.047a1.062,1.062,0,0,0,.707.267c.037,0,.07.016.107.014a5.4,5.4,0,0,1,.553-.021c5.708-.092,10.289,4.918,10.289,11.033a11.887,11.887,0,0,1-.332,2.761,12.015,12.015,0,0,0-9.864-5.3c-.057,0-.115,0-.172.007A16,16,0,0,0,178,124.488c-6.7,0-12.658,4.488-15.076,11.212a11,11,0,0,0-5.915,3.838,9.213,9.213,0,0,1-.517-2.986,9.443,9.443,0,0,1,7.415-9.528Zm28.656,30.065a3.409,3.409,0,0,1-.459.045h-.279l-24.877.033a.9.9,0,0,0-.3,0,1.018,1.018,0,0,0-.12-.026,3.782,3.782,0,0,1-.5.016,9.874,9.874,0,0,1-9.542-9.7,10.162,10.162,0,0,1,1.272-4.979,8.95,8.95,0,0,1,6.144-4.547,1.047,1.047,0,0,0,.438-.2c.018-.012.029-.033.047-.047a1.19,1.19,0,0,0,.343-.493c.01-.024.034-.035.042-.062,1.941-6.117,7.254-10.227,13.222-10.227a13.875,13.875,0,0,1,12.106,7.582,1.112,1.112,0,0,0,.234.286c.008.009.015.024.025.031a1.05,1.05,0,0,0,.711.269c.036,0,.068.016.1.014a5.857,5.857,0,0,1,.646-.021,10.066,10.066,0,0,1,9.133,6.134,11.74,11.74,0,0,1,1.063,4.9c0,5.739-4.127,10.564-9.459,10.99Z" transform="translate(-154.255 -113.578)" fill="#616060"/>
</svg>
