<svg xmlns="http://www.w3.org/2000/svg" xmlns:xlink="http://www.w3.org/1999/xlink" width="36" height="36" viewBox="0 0 36 36">
  <defs>
    <linearGradient id="linear-gradient" x1="0.829" y1="0.111" x2="0.229" y2="0.929" gradientUnits="objectBoundingBox">
      <stop offset="0" stop-color="#894ab7"/>
      <stop offset="1" stop-color="#ff1c78"/>
    </linearGradient>
  </defs>
  <g id="potty" transform="translate(-148.659 -264.659)">
    <circle id="Ellipse_3" data-name="Ellipse 3" cx="18" cy="18" r="18" transform="translate(148.659 264.659)" fill="url(#linear-gradient)"/>
    <path id="potty-icon" d="M20.025,74.317a1.084,1.084,0,0,0-1.083-1.083h-3.48a6.3,6.3,0,0,0-10.9,0H1.083A1.084,1.084,0,0,0,0,74.317v7.471a1.747,1.747,0,0,0,1.745,1.745H6.734a.469.469,0,0,0,.417-.253,3.224,3.224,0,0,1,5.724,0,.47.47,0,0,0,.417.253H18.28a1.747,1.747,0,0,0,1.745-1.745V74.317ZM10.013,71.029a5.338,5.338,0,0,1,4.394,2.293,1.084,1.084,0,0,0-.656.995.144.144,0,0,1-.144.144H6.418a.144.144,0,0,1-.144-.144,1.084,1.084,0,0,0-.656-.995A5.338,5.338,0,0,1,10.013,71.029ZM.939,74.317a.144.144,0,0,1,.144-.144H5.191a.144.144,0,0,1,.144.144A1.084,1.084,0,0,0,6.418,75.4h7.19a1.084,1.084,0,0,0,1.083-1.083.144.144,0,0,1,.144-.144h4.108a.144.144,0,0,1,.144.144v1.6H.939Zm18.147,7.471a.807.807,0,0,1-.806.806H13.565a4.163,4.163,0,0,0-7.105,0H1.745a.807.807,0,0,1-.806-.806V76.856H19.086v4.932Z" transform="translate(156.916 205.871)" fill="#fff"/>
  </g>
</svg>
