<svg xmlns="http://www.w3.org/2000/svg" width="36" height="36" viewBox="0 0 36 36">
  <g id="Group_82326" data-name="Group 82326" transform="translate(17005.5 18864.449)">
    <circle id="Ellipse_3" data-name="Ellipse 3" cx="18" cy="18" r="18" transform="translate(-17005.5 -18864.449)" fill="#ff6eb7"/>
    <g id="Group_80470" data-name="Group 80470" transform="translate(-27084.5 -23121.775)">
      <path id="rooms" d="M32.44,25h9.3a1.86,1.86,0,0,1,1.86,1.86v9.3a1.86,1.86,0,0,1-1.86,1.86h-.93v.93a1.86,1.86,0,0,1-1.86,1.86h-.93v-.93h.93a.93.93,0,0,0,.93-.93v-9.3a.93.93,0,0,0-.93-.93h-9.3a.93.93,0,0,0-.93.93v.93h-.93v-.93a1.86,1.86,0,0,1,1.86-1.86h.93v-.93A1.86,1.86,0,0,1,32.44,25Zm-.93,2.79h7.44a1.86,1.86,0,0,1,1.86,1.86v7.44h.93a.93.93,0,0,0,.93-.93v-9.3a.93.93,0,0,0-.93-.93h-9.3a.93.93,0,0,0-.93.93Zm-4.65,2.79A1.859,1.859,0,0,0,25,32.44v9.3a1.859,1.859,0,0,0,1.86,1.86h2.79a3.72,3.72,0,0,1,3.72-3.72V43.6h2.79a1.859,1.859,0,0,0,1.86-1.86v-9.3a1.859,1.859,0,0,0-1.86-1.86Zm10.23,1.86v9.3a.932.932,0,0,1-.93.93H34.3V38.95h-.93a4.659,4.659,0,0,0-4.557,3.72H26.86a.931.931,0,0,1-.93-.93v-9.3a.932.932,0,0,1,.93-.93h9.3A.932.932,0,0,1,37.09,32.44Z" transform="translate(10062 4240.326)" fill="#fff" stroke="#fff" stroke-width="0.3" fill-rule="evenodd"/>
    </g>
  </g>
</svg>
