<svg xmlns="http://www.w3.org/2000/svg" width="36" height="36" viewBox="0 0 36 36">
  <g id="Group_82332" data-name="Group 82332" transform="translate(-1481 -755)">
    <circle id="Ellipse_3" data-name="Ellipse 3" cx="18" cy="18" r="18" transform="translate(1481 755)" fill="#77d5ff" opacity="0.496"/>
    <g id="Group_9" data-name="Group 9" transform="translate(1487 766)">
      <path id="Path_13" data-name="Path 13" d="M57.249,75.141l0-.005a5.373,5.373,0,0,0-4.207-2.1v-.006c-2.647-3.639-4.687-.441-4.687-.441l0-.007a1.466,1.466,0,0,0-1.4,0l0,.009s-2.04-3.2-4.687.441v.006a5.372,5.372,0,0,0-4.207,2.1,5.432,5.432,0,1,0,8.189,5.456,1.657,1.657,0,0,0,1.313.548,2.312,2.312,0,0,0,1.48-.539,5.432,5.432,0,1,0,8.2-5.46ZM40.723,83.667a3.722,3.722,0,1,1,3.722-3.721A3.721,3.721,0,0,1,40.723,83.667Zm6.935-4.1a1.351,1.351,0,1,1,1.351-1.351A1.351,1.351,0,0,1,47.658,79.569Zm6.764,4.1a3.722,3.722,0,1,1,3.722-3.721A3.722,3.722,0,0,1,54.422,83.667Z" transform="translate(-35.457 -71.288)"/>
      <path id="Path_14" data-name="Path 14" d="M59.076,141.737a3.772,3.772,0,0,1-.22-.947,2.676,2.676,0,0,0,4.047,3.374A3.774,3.774,0,0,1,59.076,141.737Z" transform="translate(-56.051 -133.388)"/>
      <path id="Path_15" data-name="Path 15" d="M190.581,141.737a3.771,3.771,0,0,1-.22-.947,2.676,2.676,0,0,0,4.048,3.374A3.774,3.774,0,0,1,190.581,141.737Z" transform="translate(-173.55 -133.388)"/>
    </g>
  </g>
</svg>
