<svg xmlns="http://www.w3.org/2000/svg" xmlns:xlink="http://www.w3.org/1999/xlink" width="203.651" height="119.227" viewBox="0 0 203.651 119.227">
  <defs>
    <linearGradient id="linear-gradient" x1="0.001" y1="0.5" x2="1.001" y2="0.5" gradientUnits="objectBoundingBox">
      <stop offset="0" stop-color="#fe645e"/>
      <stop offset="0.255" stop-color="#fecb5f"/>
      <stop offset="0.482" stop-color="#5ed3ff"/>
      <stop offset="0.731" stop-color="#71a4ef"/>
      <stop offset="1" stop-color="#b39df8"/>
    </linearGradient>
    <linearGradient id="linear-gradient-2" x1="-3.225" y1="0.5" x2="3.938" y2="0.5" xlink:href="#linear-gradient"/>
    <linearGradient id="linear-gradient-3" x1="0.392" y1="0.276" x2="0.498" y2="0.496" gradientUnits="objectBoundingBox">
      <stop offset="0" stop-color="#fff"/>
      <stop offset="1" stop-color="#fff" stop-opacity="0"/>
    </linearGradient>
    <linearGradient id="linear-gradient-4" x1="-189.809" y1="-4.964" x2="-189.7" y2="-4.756" xlink:href="#linear-gradient-3"/>
  </defs>
  <g id="Component_7_1" data-name="Component 7 – 1" transform="translate(0 0)">
    <g id="ipad-logo">
      <g id="logo" style="isolation: isolate">
        <g id="Group_80385" data-name="Group 80385" style="mix-blend-mode: darken;isolation: isolate">
          <g id="Group_80368" data-name="Group 80368" transform="translate(52.409)">
            <path id="Path_35083" data-name="Path 35083" d="M2518.125,331.053c-4.507,0-8.536-.01-12.316-.031a16.505,16.505,0,0,1-10.114-3.563,17.488,17.488,0,0,1,8.378-31.258,2.109,2.109,0,0,0,1.907-1.395c3.646-8.295,9.831-13.447,18.381-15.315a27.645,27.645,0,0,1,5.879-.655,25.481,25.481,0,0,1,16.512,6.267,20.128,20.128,0,0,1,3.564,3.773,1.585,1.585,0,0,0,1.413.7h.047q.2,0,.4,0a20.516,20.516,0,0,1,13.383,4.707,20.709,20.709,0,0,1-9.919,36.513,23.35,23.35,0,0,1-3.638.243h-2.122q-2.751,0-5.5,0l-1.826,0a20.7,20.7,0,0,0,4.64-4.01c.027-.032.038-.045.258-.045h.074c.485,0,.97,0,1.454,0s.973,0,1.46,0c.921,0,1.668-.009,2.351-.027a16.3,16.3,0,0,0,12.091-5.62,15.989,15.989,0,0,0,4.046-8.837,16.715,16.715,0,0,0-13.736-18.594,15.429,15.429,0,0,0-2.706-.235,18.721,18.721,0,0,0-3.111.273,2.065,2.065,0,0,1-.325.036c-.115,0-.215,0-.375-.265a21.865,21.865,0,0,0-8.781-8.313,21.567,21.567,0,0,0-8.659-2.389c-.482-.029-.966-.044-1.439-.044a20.992,20.992,0,0,0-8.5,1.757,21.683,21.683,0,0,0-11.844,12.405,23.5,23.5,0,0,0-.914,2.909.683.683,0,0,1-.063.18.512.512,0,0,1-.079.005,1.551,1.551,0,0,1-.16-.01,17.487,17.487,0,0,0-1.774-.093,13.148,13.148,0,0,0-6.523,1.639,12.865,12.865,0,0,0-6.936,10.346c-.556,5.466,1.576,9.8,6.336,12.894a11.878,11.878,0,0,0,6.548,1.959l3.309.005c3.64.006,7.405.012,11.108.012,4.436,0,8.142-.008,11.665-.027a12.742,12.742,0,0,0,11.211-6.328,13.044,13.044,0,0,0,.855-12.337,13.379,13.379,0,0,0-9.832-7.746,13.091,13.091,0,0,0-2.354-.214,13.342,13.342,0,0,0-13.077,10.89,13.229,13.229,0,0,0,4.955,12.966h-1.922c-1.035,0-2.4,0-3.782.008h-.01a1.158,1.158,0,0,1-.106-.134l-.019-.026a17.416,17.416,0,0,1-3.287-8.215,16.9,16.9,0,0,1,1.808-10.154,16.544,16.544,0,0,1,8.466-7.89,18.928,18.928,0,0,1,7.212-1.526,17.143,17.143,0,0,1,10.671,3.921,16.264,16.264,0,0,1,6.28,11.121,16.839,16.839,0,0,1-4.995,14.744,16.548,16.548,0,0,1-12.031,4.988C2527.6,331.042,2522.857,331.053,2518.125,331.053Z" transform="translate(-2488.773 -278.835)" fill="url(#linear-gradient)"/>
            <g id="Group_80367" data-name="Group 80367" transform="translate(38.091 28.012)">
              <g id="Group_80366" data-name="Group 80366">
                <path id="Path_35084" data-name="Path 35084" d="M2566.031,333.6l7.149,4.205a2.05,2.05,0,0,1,0,3.785l-7.149,4.205c-1.262.841-3.365.421-3.365-1.261v-9.672C2562.666,333.176,2564.769,332.756,2566.031,333.6Z" transform="translate(-2562.666 -333.177)" fill="url(#linear-gradient-2)"/>
              </g>
            </g>
          </g>
          <path id="Path_35085" data-name="Path 35085" d="M2530.736,292.408a14.937,14.937,0,0,1,12.588-8.745A123.385,123.385,0,0,0,2530.736,292.408Z" transform="translate(-2456.696 -281.174)" fill="url(#linear-gradient-3)"/>
          <path id="Path_35086" data-name="Path 35086" d="M2633.554,311.809a14.938,14.938,0,0,0-12.215-9.26A123.411,123.411,0,0,1,2633.554,311.809Z" transform="translate(-2500.595 -290.325)" fill="url(#linear-gradient-4)"/>
          <path id="Path_35087" data-name="Path 35087" d="M2546.222,322.383a12.183,12.183,0,0,1,10.268-7.133A100.676,100.676,0,0,0,2546.222,322.383Z" transform="translate(-2464.199 -296.479)" fill="url(#linear-gradient-3)"/>
          <path id="Path_35088" data-name="Path 35088" d="M2501.956,423.66a13.047,13.047,0,0,1-4.937-.938,8.428,8.428,0,0,1-3.034-2.062,10.294,10.294,0,0,1-3.887,2.244,14.453,14.453,0,0,1-4.231.72q-.224,0-.445-.01a13.6,13.6,0,0,1-9.671-3.938,12.671,12.671,0,0,1-7.85,3.845,16.912,16.912,0,0,1-1.941.114,12.944,12.944,0,0,1-9.373-3.711,13.782,13.782,0,0,1-1.12-1.23,4.511,4.511,0,0,1-1.252,3.2,4.423,4.423,0,0,1-3.251,1.293l-.16,0c-.614-.018-1.211-.026-1.809-.026s-1.186.009-1.778.026l-.15,0a4.426,4.426,0,0,1-3.25-1.277,4.572,4.572,0,0,1-1.271-3.338c.015-2.859.013-5.718.01-8.577l-.047-.009a4.2,4.2,0,0,1-1.511.284,5.091,5.091,0,0,1-1-.1,4.952,4.952,0,0,0-.953-.111,2.3,2.3,0,0,0-.382.029c-.146.024-.246.045-.312.062a3.528,3.528,0,0,0-.052.416c-.124,1.644-.115,3.305-.1,5.064.005.955.012,1.91,0,2.865-.048,3.056-1.691,4.675-4.752,4.682l-2.214-.005c-.45,0-.9,0-1.358.011l-.119,0a4.387,4.387,0,0,1-3.2-1.265c-.053-.053-.1-.108-.154-.164a12.741,12.741,0,0,1-5.063,1.735,17.236,17.236,0,0,1-2.131.137,12.919,12.919,0,0,1-9.644-3.993,12.452,12.452,0,0,1-3.509-7.066,16.146,16.146,0,0,1-2.4.505,25.57,25.57,0,0,1-3.36.2c0,.362,0,1.365,0,1.365,0,1.283,0,2.564.01,3.844a4.6,4.6,0,0,1-1.278,3.413,4.472,4.472,0,0,1-3.28,1.3c-.073,0-.148,0-.225,0-.593-.021-1.2-.03-1.8-.03q-.945,0-1.887.03l-.165,0a4.5,4.5,0,0,1-3.281-1.284,4.607,4.607,0,0,1-1.279-3.361c.016-2.983.014-5.964.011-8.945,0,0,0-11.373,0-14.729,0-3.039,1.677-4.713,4.717-4.713l4.907-.006q2.308,0,4.613.023a15.279,15.279,0,0,1,6.075,1.228,9.963,9.963,0,0,1,6.057,7.478c0,.027.01.055.015.082a15.543,15.543,0,0,1,6-1.274,12.238,12.238,0,0,1,4.59.875,12.008,12.008,0,0,1,2.2,1.156c.082-.1.17-.195.26-.287a4.391,4.391,0,0,1,3.207-1.266l.14,0c.586.01,1.2.015,1.816.015q.98,0,1.961-.015h.085a4.756,4.756,0,0,1,1.875.371,9.593,9.593,0,0,1,4.022-.814c.5,0,1.013.026,1.616.083a4.242,4.242,0,0,1,1.281.325,15.493,15.493,0,0,1,.167-1.895c.755-4.88,3.748-7.717,8.656-8.206.65-.065,1.3-.1,1.929-.1a17.349,17.349,0,0,1,3.013.259,4.329,4.329,0,0,1,3.741,4.864c-.1.969-.167,2-.214,3.063a4.267,4.267,0,0,1-1.6,3.294l.049.049a4.279,4.279,0,0,1,.292.335,14.324,14.324,0,0,1,4.83-1.816,15.476,15.476,0,0,1,2.909-.29,11.634,11.634,0,0,1,6.773,2.073,11.151,11.151,0,0,1,2.355,2.2,13.083,13.083,0,0,1,9.454-4.221c.152,0,.308-.005.464-.005a14.161,14.161,0,0,1,5.264.9,4.4,4.4,0,0,1,1.158-.386c0-.21-.005-.42-.011-.631a4.371,4.371,0,0,1,4.527-4.685h.131c.6.015,1.185.02,1.768.02.66,0,1.32-.007,1.98-.014a4.318,4.318,0,0,1,4.508,4.543q-.006.344-.008.69l.3,0h.089a4.281,4.281,0,0,1,4.406,4.481c-.017.964-.017,1.952,0,2.937a4.281,4.281,0,0,1-4.422,4.469l-.373,0c0,.444,0,.879.012,1.306a4.469,4.469,0,0,1,.747-.064,3.985,3.985,0,0,1,2.851,1.172,4.144,4.144,0,0,1,1.183,3.034q-.012,1.652,0,3.3a4.341,4.341,0,0,1-3.421,4.346A18.26,18.26,0,0,1,2501.956,423.66Z" transform="translate(-2387.103 -331.699)" fill="#04aef9"/>
          <path id="Path_35089" data-name="Path 35089" d="M2504.615,409.974l1.007,0c.246,0,.492,0,.793,0a2.945,2.945,0,0,0,2.177-.851,2.905,2.905,0,0,0,.809-2.158c-.017-1-.017-2,0-2.985a2.847,2.847,0,0,0-2.97-3.02h-.067c-.4.006-.8.009-1.2.009l-.56,0c0-.719,0-1.438.009-2.155a2.885,2.885,0,0,0-3.052-3.08h0c-.666.008-1.331.015-2,.015-.6,0-1.19-.005-1.783-.02l-.116,0a3.031,3.031,0,0,0-2.269.884,3.071,3.071,0,0,0-.823,2.323c.019.612.014,1.226.01,1.839,0,.064,0,.128,0,.192h-.146l-.4,0a2.942,2.942,0,0,0-1.924.651,12.313,12.313,0,0,0-5.389-1.084c-.145,0-.291,0-.435,0a11.612,11.612,0,0,0-8.96,4.39c-.22.281-.422.573-.614.87a9.725,9.725,0,0,0-3.084-3.493,10.224,10.224,0,0,0-5.954-1.816,14.04,14.04,0,0,0-2.638.264,12.147,12.147,0,0,0-5.662,2.579,2.857,2.857,0,0,0-.759-1.505,2.985,2.985,0,0,0-2.214-.866l-.141,0c-.207.007-.414.008-.62.008l-.272,0c0-.244,0-.489.011-.733a2.084,2.084,0,0,1,.04-.338h.03a2.352,2.352,0,0,1,.39.04c.06.01.121.017.18.031a3.1,3.1,0,0,0,1.106.214,2.661,2.661,0,0,0,2.631-2.766c.048-1.093.122-2.15.219-3.14a2.92,2.92,0,0,0-2.563-3.308,15.855,15.855,0,0,0-2.762-.238c-.582,0-1.184.03-1.787.091-4.243.422-6.726,2.776-7.379,7a18.148,18.148,0,0,0-.153,3.15c-.122,0-.244,0-.366,0l-.323,0a3.232,3.232,0,0,0-.832.107,2.835,2.835,0,0,0-1.329-.475c-.561-.053-1.031-.077-1.481-.077a7.737,7.737,0,0,0-4.042,1.006,3.07,3.07,0,0,0-1.855-.564h-.064q-.991.015-1.983.016-.936,0-1.871-.017h-.085a2.981,2.981,0,0,0-2.188.844,2.828,2.828,0,0,0-.775,1.51,10.018,10.018,0,0,0-3.238-2.061,10.8,10.8,0,0,0-4.053-.772,13.522,13.522,0,0,0-3.315.436,12.705,12.705,0,0,0-3.854,1.659,15.179,15.179,0,0,0-.253-2.07,8.579,8.579,0,0,0-5.224-6.434,13.875,13.875,0,0,0-5.514-1.107q-2.3-.027-4.594-.023l-4.909.006c-2.237,0-3.279,1.041-3.28,3.277,0,3.356,0,14.727,0,14.727,0,2.984,0,5.969-.012,8.953a3.158,3.158,0,0,0,.862,2.341,3.033,3.033,0,0,0,2.24.861l.143,0q.965-.03,1.931-.03c.618,0,1.237.01,1.852.031.058,0,.115,0,.17,0a3.065,3.065,0,0,0,2.259-.871,3.25,3.25,0,0,0,.863-2.388c-.013-1.287-.011-2.573-.01-3.86,0-.936,0-1.873,0-2.812.441.006.883.012,1.325.012A24.537,24.537,0,0,0,2404.8,413a12.717,12.717,0,0,0,3.927-1.131,10.823,10.823,0,0,0,3.205,8.117,11.532,11.532,0,0,0,8.612,3.556,15.806,15.806,0,0,0,1.952-.126,11.185,11.185,0,0,0,5.713-2.389,2.785,2.785,0,0,0,.7,1.229,2.98,2.98,0,0,0,2.184.843h.089c.465-.01.928-.012,1.392-.012l2.208.005c2.26-.005,3.283-1.013,3.319-3.27.016-.944.01-1.888.005-2.832-.011-1.792-.021-3.485.108-5.181.1-1.334.459-1.6,1.56-1.787a3.726,3.726,0,0,1,.618-.049,6.324,6.324,0,0,1,1.231.138,3.679,3.679,0,0,0,.718.075,2.766,2.766,0,0,0,1.359-.358,3.339,3.339,0,0,0,1,.147l.153,0c.161-.006.322-.008.483-.009v.8c0,3.057.005,6.114-.009,9.17a3.128,3.128,0,0,0,.854,2.318,3,3,0,0,0,2.207.854l.133,0q.91-.025,1.819-.026t1.833.026l.136,0a3.018,3.018,0,0,0,2.228-.864,3.108,3.108,0,0,0,.84-2.321c-.021-1.362-.018-2.724-.013-4.086l0-1.56s0-3.434,0-4.308h.1l.237,0a11.023,11.023,0,0,0,3.238,10.279,11.556,11.556,0,0,0,8.369,3.3,15.561,15.561,0,0,0,1.778-.1,11.288,11.288,0,0,0,7.156-3.6,3.294,3.294,0,0,0,.737-1.19,12.022,12.022,0,0,0,9.857,4.875c.126.006.253.008.381.008a13.059,13.059,0,0,0,3.811-.657,8.882,8.882,0,0,0,3.364-1.954,2.913,2.913,0,0,0,.916-1.482,6.632,6.632,0,0,0,3.6,3.3,11.624,11.624,0,0,0,4.4.832,16.877,16.877,0,0,0,3.787-.469,2.9,2.9,0,0,0,2.305-2.936q-.012-1.66,0-3.322a2.735,2.735,0,0,0-.766-2.012,2.557,2.557,0,0,0-1.831-.748,3.318,3.318,0,0,0-.921.138,3.7,3.7,0,0,1-1,.15c-.045,0-.156,0-.165-.005,0-.026-.006-.055-.009-.085a35.884,35.884,0,0,1-.095-3.652Q2504.613,410.306,2504.615,409.974Z" transform="translate(-2388.453 -333.049)" fill="#fff"/>
          <g id="Group_80369" data-name="Group 80369" transform="translate(188.418 56.243)">
            <path id="Path_35090" data-name="Path 35090" d="M2756.834,387.942h.428a.084.084,0,0,0,.022.007c.172.021.346.035.517.062a4.212,4.212,0,0,1,1.417.51,4.394,4.394,0,0,1,2.208,3.41,4.435,4.435,0,0,1-.015.992,4.3,4.3,0,0,1-.469,1.477,4.4,4.4,0,0,1-1.914,1.89,4.274,4.274,0,0,1-1.627.461,4.406,4.406,0,0,1-1.295-.083,4.414,4.414,0,0,1-3.466-3.921c0-.056-.012-.111-.019-.166v-.428a.116.116,0,0,0,.008-.027c.018-.171.028-.344.055-.513a4.288,4.288,0,0,1,.446-1.314,4.422,4.422,0,0,1,1.215-1.441,4.314,4.314,0,0,1,1.033-.594,4.263,4.263,0,0,1,1.259-.3Zm.2.527a3.885,3.885,0,1,0,3.885,3.766A3.881,3.881,0,0,0,2757.033,388.469Z" transform="translate(-2752.622 -387.942)" fill="#05aff7"/>
            <path id="Path_35091" data-name="Path 35091" d="M2758.674,395.127v1.492H2758v-4.07h.3c.5,0,1,0,1.5,0a1.817,1.817,0,0,1,.936.242.986.986,0,0,1,.5.719,1.659,1.659,0,0,1,.03.489,1.108,1.108,0,0,1-.314.72,1.347,1.347,0,0,1-.59.312l-.167.044.986,1.548h-.056c-.194,0-.388,0-.582,0a.065.065,0,0,1-.063-.034c-.3-.465-.593-.929-.888-1.4a.128.128,0,0,0-.126-.069c-.244,0-.488,0-.732,0Zm0-.573h.053c.22,0,.441,0,.661,0a1.762,1.762,0,0,0,.719-.09,1.135,1.135,0,0,0,.179-.069.627.627,0,0,0,.312-.514.67.67,0,0,0-.076-.423.762.762,0,0,0-.451-.313,1.825,1.825,0,0,0-.417-.053c-.215-.008-.432,0-.647,0h-.335Z" transform="translate(-2755.226 -390.175)" fill="#05aff7"/>
          </g>
          <g id="Group_80378" data-name="Group 80378" transform="translate(3.734 59.977)">
            <path id="Path_35092" data-name="Path 35092" d="M2539.665,423.95c-.014-.727-.048-1.457-.131-2.178a8.307,8.307,0,0,0-3.414-6.251,8.669,8.669,0,0,0-6.847-1.183c-3.566.685-6.158,2.655-7.227,6.206a8.823,8.823,0,0,0,2.3,9.391,9.727,9.727,0,0,0,8.279,2.558,9.057,9.057,0,0,0,5.738-2.884c.359-.384.357-.6-.081-.9-.7-.475-1.377-.995-2.061-1.5-1.13-.832-1.129-.833-2.195.114a4.122,4.122,0,0,1-6.706-1.573c-.2-.6-.048-.783.565-.776,1.821.021,3.641.007,5.462.007q2.659,0,5.318,0C2539.647,424.982,2539.684,424.958,2539.665,423.95Zm-6.366-2.65c-.874.007-1.747,0-2.621,0-.97,0-1.941-.009-2.911,0-.477,0-.664-.175-.556-.668a3.681,3.681,0,0,1,3.49-2.5,3.241,3.241,0,0,1,3.319,2.208C2534.25,421.111,2534.116,421.294,2533.3,421.3Z" transform="translate(-2455.988 -404.358)" fill="#04aef9"/>
            <path id="Path_35093" data-name="Path 35093" d="M2448.853,421.778c-.394-3.226-1.782-5.8-4.946-7.068a9.418,9.418,0,0,0-5.945-.24,8.615,8.615,0,0,0-6.638,6.2,8.832,8.832,0,0,0,2.131,9.05,9.715,9.715,0,0,0,8.625,2.747,8.972,8.972,0,0,0,5.645-2.91c.3-.324.336-.529-.059-.8-.7-.479-1.375-1-2.059-1.5-1.2-.887-1.2-.888-2.305.113a4.136,4.136,0,0,1-6.657-1.609c-.2-.578-.085-.794.55-.787,1.845.022,3.691.008,5.536.007,1.821,0,3.642-.018,5.463.009.607.009.841-.225.8-.814C2448.938,423.376,2448.95,422.57,2448.853,421.778Zm-6.273-.483c-.9.005-1.8,0-2.694,0-.922,0-1.844-.011-2.767,0-.512.007-.71-.179-.579-.708a3.69,3.69,0,0,1,3.446-2.459,3.259,3.259,0,0,1,3.32,2.106C2443.595,421.078,2443.453,421.29,2442.58,421.3Z" transform="translate(-2412.054 -404.353)" fill="#04aef9"/>
            <path id="Path_35094" data-name="Path 35094" d="M2503.946,416.434c0,1.894-.019,3.788.01,5.682.01.626-.193.87-.837.851q-1.893-.055-3.787,0c-.653.019-.832-.245-.829-.86.019-3.764.01-7.527.009-11.291,0-.974-.006-.976-.968-.98-.631,0-1.263-.019-1.894,0-.509.019-.771-.153-.76-.7.019-1.019.012-2.039,0-3.059,0-.456.19-.664.656-.654.7.015,1.411-.037,2.112.012s.865-.245.865-.891a27.22,27.22,0,0,1,.1-4.218c.491-3.173,2.1-4.739,5.335-5.06a14.309,14.309,0,0,1,3.921.123c.477.084.731.274.677.821-.107,1.086-.181,2.175-.229,3.265-.021.48-.142.692-.648.495a3.279,3.279,0,0,0-.638-.148c-1.907-.318-3.009.555-3.091,2.474-.034.8.01,1.6-.018,2.4-.018.529.179.748.719.731.849-.027,1.7.014,2.549-.012.543-.017.813.157.8.741-.024,1-.016,1.991,0,2.987.006.49-.2.7-.7.692-.8-.02-1.6-.006-2.4,0-.953,0-.955.005-.957.99Q2503.944,413.63,2503.946,416.434Z" transform="translate(-2443.062 -395.187)" fill="#04aef9"/>
            <path id="Path_35095" data-name="Path 35095" d="M2594.157,419.273c0-1.336-.013-2.673.007-4.009.008-.524-.175-.757-.719-.736-.7.027-1.409-.008-2.114.007-.463.01-.665-.192-.661-.651q.014-1.567,0-3.134c0-.476.236-.638.682-.629.68.014,1.361-.022,2.04.009.564.025.784-.187.771-.759-.027-1.214.019-2.431-.017-3.644-.019-.644.232-.855.855-.84,1.287.031,2.575.021,3.862.005.529-.006.739.211.73.741-.02,1.142-.006,2.284,0,3.426,0,1.062,0,1.063,1.032,1.064s2.041.013,3.061,0c.49-.008.711.18.7.684q-.025,1.53,0,3.061c.009.513-.233.679-.713.672-1.118-.014-2.236.014-3.353-.01-.529-.011-.748.178-.733.719.054,2.038-.081,4.079.114,6.117.141,1.474.734,2.093,2.215,2.163a5.856,5.856,0,0,0,1.872-.23c.414-.116.6-.058.6.4q-.011,1.677,0,3.353a.613.613,0,0,1-.521.679,11.073,11.073,0,0,1-6.8-.252,4.479,4.479,0,0,1-2.888-4.336c-.043-1.287-.008-2.575-.008-3.863Z" transform="translate(-2489.469 -399.886)" fill="#04aef9"/>
            <path id="Path_35096" data-name="Path 35096" d="M2568.963,432.606c-4.785-.026-8.515-2.853-9.457-7.072a9.166,9.166,0,0,1,8.894-11.328,9.317,9.317,0,0,1,6.067,1.631c.908.685.9.705.121,1.519-.805.842-1.609,1.686-2.4,2.545-.3.327-.514.393-.892.06a3.979,3.979,0,0,0-6.493,2.954,4.494,4.494,0,0,0,1.2,3.759c1.18,1.159,3.936,1.644,5.235.146.322-.371.588-.3.9.036q1.385,1.5,2.807,2.959c.3.3.256.52-.035.784a6.58,6.58,0,0,1-2.495,1.461A10.321,10.321,0,0,1,2568.963,432.606Z" transform="translate(-2474.252 -404.399)" fill="#04aef9"/>
            <path id="Path_35097" data-name="Path 35097" d="M2473.85,417.157c.544-.528.938-1.1,1.438-1.6,1.426-1.418,3.193-1.485,5.025-1.313.392.037.506.324.505.678,0,1.262,0,2.525,0,3.787,0,.513-.243.6-.7.511a7.379,7.379,0,0,0-2.675-.1c-2.243.373-3.3,1.587-3.473,3.88-.207,2.717-.075,5.434-.119,8.15-.016,1-.015,1.007-1.027,1.009-1.214,0-2.428-.018-3.641.007-.561.011-.774-.194-.773-.763q.019-8.01,0-16.022c0-.57.215-.772.774-.761,1.311.025,2.622.021,3.932,0,.525-.008.758.187.737.723C2473.832,415.947,2473.85,416.552,2473.85,417.157Z" transform="translate(-2430.233 -404.388)" fill="#04aef9"/>
            <path id="Path_35098" data-name="Path 35098" d="M2413.326,405.18a6.3,6.3,0,0,0-3.891-4.763,11.71,11.71,0,0,0-4.617-.913c-3.158-.038-6.318-.018-9.477-.017-.96,0-.981.022-.982.979q0,5.868,0,11.737c0,3.985.01,7.97-.011,11.955,0,.655.2.911.877.891,1.311-.04,2.625-.045,3.936,0,.72.026.917-.258.91-.936-.026-2.7.009-5.395-.023-8.092-.009-.708.243-.912.93-.914a42.788,42.788,0,0,0,5.677-.142c2.813-.381,5.16-1.461,6.3-4.26A9.613,9.613,0,0,0,2413.326,405.18Zm-5.883,3.187a2.586,2.586,0,0,1-1.905,1.642,20.4,20.4,0,0,1-5,.25c-.391.006-.471-.275-.472-.6q0-1.2,0-2.4h0c0-.729.016-1.458-.005-2.186-.015-.515.169-.753.716-.747a33.24,33.24,0,0,1,4.071.158C2407,404.771,2408.138,406.462,2407.443,408.367Z" transform="translate(-2394.347 -397.267)" fill="#04aef9"/>
            <g id="Group_80377" data-name="Group 80377" transform="translate(0.575 0.725)">
              <g id="Group_80370" data-name="Group 80370" transform="translate(65.576 9.758)">
                <path id="Path_35099" data-name="Path 35099" d="M2538.977,423.478a3.527,3.527,0,0,1,.807,1.388,1.4,1.4,0,0,1-.055,1.268,1.419,1.419,0,0,1-1.212.427q-.493,0-.987,0l-3.4-.006c-.382,0-.765,0-1.169,0h0a1.4,1.4,0,0,1-.632-.132.94.94,0,0,0,.058.1,1.163,1.163,0,0,0,.934.372h0c.4,0,.787-.005,1.168-.005l3.4.006q.493,0,.987,0a1.417,1.417,0,0,0,1.212-.427,1.394,1.394,0,0,0,.055-1.268A3.547,3.547,0,0,0,2538.977,423.478Z" transform="translate(-2527.352 -419.377)" fill="#d7f5ff"/>
                <path id="Path_35100" data-name="Path 35100" d="M2523.491,421.877c.954-3.171,3.236-5.125,6.784-5.807a11.18,11.18,0,0,1,2.1-.212,7.308,7.308,0,0,1,4.315,1.3c.195.136.376.282.552.432a7.114,7.114,0,0,0-.912-.767,7.308,7.308,0,0,0-4.315-1.3,11.192,11.192,0,0,0-2.1.212c-3.547.681-5.83,2.635-6.784,5.807a8.213,8.213,0,0,0,2.152,8.815c.08.078.166.145.248.22A8.2,8.2,0,0,1,2523.491,421.877Z" transform="translate(-2522.675 -415.523)" fill="#d7f5ff"/>
                <path id="Path_35101" data-name="Path 35101" d="M2544.144,441.757l-.006,0c-.53-.358-1.047-.743-1.547-1.115l-.536-.4a4.861,4.861,0,0,0-.74-.5,4.06,4.06,0,0,0-.73.581,4.922,4.922,0,0,1-3.269,1.26,4.612,4.612,0,0,1-3-1.084,4.58,4.58,0,0,0,3.356,1.419,4.928,4.928,0,0,0,3.27-1.26,4.085,4.085,0,0,1,.729-.581,4.846,4.846,0,0,1,.74.5l.536.4c.372.277.757.558,1.146.833l.024-.023Z" transform="translate(-2528.317 -427.257)" fill="#d7f5ff"/>
              </g>
              <g id="Group_80371" data-name="Group 80371" transform="translate(18.834 9.751)">
                <path id="Path_35102" data-name="Path 35102" d="M2451.44,440.293a4.468,4.468,0,0,0-.817-.54,4.049,4.049,0,0,0-.76.617,4.736,4.736,0,0,1-6.227.106,4.737,4.737,0,0,0,6.586.229,3.985,3.985,0,0,1,.76-.616,4.4,4.4,0,0,1,.816.54l.564.419c.341.253.7.509,1.051.762.014-.015.029-.028.043-.043-.5-.341-.982-.7-1.453-1.055Z" transform="translate(-2437.638 -427.257)" fill="#d7f5ff"/>
                <path id="Path_35103" data-name="Path 35103" d="M2448.277,423.474a3.536,3.536,0,0,1,.779,1.267,1.482,1.482,0,0,1-.007,1.366,1.445,1.445,0,0,1-1.261.453q-.529,0-1.058,0l-3.3-.007c-.367,0-.732,0-1.135.008h0a1.442,1.442,0,0,1-.661-.14.79.79,0,0,0,.057.089,1.187,1.187,0,0,0,.963.386h0c.4-.006.768-.007,1.134-.007l3.3.007q.529,0,1.058,0a1.443,1.443,0,0,0,1.26-.453,1.48,1.48,0,0,0,.007-1.366A3.564,3.564,0,0,0,2448.277,423.474Z" transform="translate(-2436.667 -419.369)" fill="#d7f5ff"/>
                <path id="Path_35104" data-name="Path 35104" d="M2434.764,430.485a8.224,8.224,0,0,1-1.992-8.493,8.055,8.055,0,0,1,6.228-5.8,10.658,10.658,0,0,1,2.608-.347,7.944,7.944,0,0,1,2.981.564,7.142,7.142,0,0,1,2.192,1.377,7.011,7.011,0,0,0-2.551-1.713,7.952,7.952,0,0,0-2.981-.563,10.665,10.665,0,0,0-2.608.347,8.054,8.054,0,0,0-6.228,5.8,8.222,8.222,0,0,0,1.991,8.493,9.188,9.188,0,0,0,.676.633C2434.975,430.683,2434.866,430.591,2434.764,430.485Z" transform="translate(-2432 -415.511)" fill="#d7f5ff"/>
              </g>
              <g id="Group_80372" data-name="Group 80372" transform="translate(51.827)">
                <path id="Path_35105" data-name="Path 35105" d="M2496.367,407.239c0-.03,0-.055,0-.074l.046,0c.121,0,.222,0,.323,0,.188,0,.376,0,.564-.006s.364-.006.545-.006c.224,0,.449,0,.673.02.063,0,.122.006.178.006a1.212,1.212,0,0,0,1.043-.457,1.691,1.691,0,0,0,.258-1.014c0-.358-.008-.717-.015-1.075a17.487,17.487,0,0,1,.113-3.054c.451-2.917,1.894-4.285,4.824-4.576.509-.051,1.015-.076,1.5-.076a13.08,13.08,0,0,1,2.1.172c0-.038.006-.077.01-.115.009-.086,0-.13.006-.139a.779.779,0,0,0-.212-.06,13.046,13.046,0,0,0-2.261-.193c-.488,0-.994.026-1.5.076-2.93.292-4.373,1.66-4.824,4.577a17.533,17.533,0,0,0-.113,3.054c.008.359.015.717.015,1.075a1.692,1.692,0,0,1-.257,1.014,1.213,1.213,0,0,1-1.043.457c-.056,0-.115,0-.178-.006-.224-.016-.448-.02-.673-.02-.182,0-.363,0-.545.005s-.376.006-.564.006c-.1,0-.2,0-.323,0l-.045,0a.467.467,0,0,0,0,.074c.009,1.092.015,2.077,0,3.074a.667.667,0,0,0,0,.111,1.36,1.36,0,0,0,.149.007h.012c.065,0,.131,0,.2,0C2496.38,409.171,2496.375,408.251,2496.367,407.239Z" transform="translate(-2496.004 -396.594)" fill="#d7f5ff"/>
                <path id="Path_35106" data-name="Path 35106" d="M2515.724,416.3h-.011c-.237.008-.474.01-.711.01l-1.174-.007c-.222,0-.443,0-.665.009l-.076,0a1.378,1.378,0,0,1-.684-.159,1.019,1.019,0,0,0,.12.157,1.213,1.213,0,0,0,.924.337l.076,0c.22-.007.443-.009.664-.009l1.173.007c.185,0,.371,0,.557-.008,0-.061,0-.122,0-.184a.811.811,0,0,0-.007-.142A1.2,1.2,0,0,0,2515.724,416.3Z" transform="translate(-2503.95 -406.073)" fill="#d7f5ff"/>
                <path id="Path_35107" data-name="Path 35107" d="M2503.238,427.34l0-2.22c0-.824-.11-1.225-.522-1.411a2.45,2.45,0,0,1,.164,1.076v2.22c0,3.025,0,6.05-.01,9.075,0,.172.017.251.012.266a.912.912,0,0,0,.215.017h.01l.121,0C2503.243,433.354,2503.241,430.347,2503.238,427.34Z" transform="translate(-2499.255 -409.732)" fill="#d7f5ff"/>
              </g>
              <g id="Group_80373" data-name="Group 80373" transform="translate(101.202 5)">
                <path id="Path_35108" data-name="Path 35108" d="M2611.073,441.961c-.092,0-.183,0-.275-.007a3.124,3.124,0,0,1-1.738-.53,2.754,2.754,0,0,0,2.1.866c.092,0,.183.007.274.007a6.362,6.362,0,0,0,1.285-.15c0-.135,0-.271,0-.406A6.509,6.509,0,0,1,2611.073,441.961Z" transform="translate(-2600.156 -423.315)" fill="#d7f5ff"/>
                <path id="Path_35109" data-name="Path 35109" d="M2609.328,416.649l1.823.006c.335,0,.672,0,1.008-.007,0-.079,0-.158,0-.237a.932.932,0,0,0,0-.095c-.025,0-.062,0-.113,0h0c-.417.007-.833.009-1.249.009l-1.823-.006a2.731,2.731,0,0,1-1.07-.147C2608.1,416.547,2608.513,416.647,2609.328,416.649Z" transform="translate(-2599.593 -411.077)" fill="#d7f5ff"/>
                <path id="Path_35110" data-name="Path 35110" d="M2592.146,411.913c0-.019,0-.034,0-.047.018,0,.041,0,.069,0,.148,0,.273,0,.4,0l1.033-.008c.208,0,.415,0,.621.012l.112,0a1.236,1.236,0,0,0,.933-.337,1.332,1.332,0,0,0,.327-1.012c-.013-.569-.01-1.137-.006-1.706,0-.647.008-1.295-.011-1.942a.764.764,0,0,1,.019-.24h.007c.022,0,.083-.01.193-.01.664.015,1.281.021,1.9.021s1.213-.006,1.819-.013c0-.06,0-.121,0-.182a.781.781,0,0,0-.009-.146.843.843,0,0,0-.139-.009h0c-.677.008-1.354.014-2.031.014-.618,0-1.235-.006-1.9-.021-.11,0-.171.01-.194.01h-.007a.773.773,0,0,0-.018.24c.018.647.014,1.295.011,1.942,0,.569-.007,1.137.006,1.706a1.333,1.333,0,0,1-.327,1.011,1.234,1.234,0,0,1-.933.338l-.112,0c-.207-.009-.414-.012-.621-.012l-1.033.007c-.124,0-.249,0-.4,0-.028,0-.051,0-.07,0,0,.013,0,.029,0,.047q.012,1.571,0,3.143c0,.029,0,.052,0,.07.018,0,.041,0,.069,0l.289,0Q2592.156,413.352,2592.146,411.913Z" transform="translate(-2591.786 -406.293)" fill="#d7f5ff"/>
                <path id="Path_35111" data-name="Path 35111" d="M2598.722,432.722c-.03-.875-.021-1.773-.014-2.64,0-.4.007-.8.007-1.2V428.3h0v-.579c0-.949-.006-1.9.009-2.847a1.369,1.369,0,0,0-.326-.992,1.007,1.007,0,0,0-.25-.178,1.524,1.524,0,0,1,.217.836c-.015.949-.012,1.9-.009,2.847v.579h.006v.575q0,.6-.008,1.2c-.007.867-.015,1.765.014,2.64a4.058,4.058,0,0,0,1.384,3.141A4.226,4.226,0,0,1,2598.722,432.722Z" transform="translate(-2594.866 -414.73)" fill="#d7f5ff"/>
              </g>
              <g id="Group_80374" data-name="Group 80374" transform="translate(85.016 9.802)">
                <path id="Path_35112" data-name="Path 35112" d="M2575.489,441.174a3.565,3.565,0,0,0,2.726-1.109c-.1-.106-.192-.2-.291-.311l-.046-.046a3.556,3.556,0,0,1-2.748,1.132,5.09,5.09,0,0,1-3.064-1.025c.035.037.066.076.1.112A4.944,4.944,0,0,0,2575.489,441.174Z" transform="translate(-2566.045 -427.285)" fill="#d7f5ff"/>
                <path id="Path_35113" data-name="Path 35113" d="M2560.97,426.576a8.592,8.592,0,0,1,8.345-10.629c.125,0,.251,0,.375,0a8.447,8.447,0,0,1,5.333,1.518l.03-.032c-.109-.092-.27-.213-.389-.3a8.447,8.447,0,0,0-5.333-1.518c-.125,0-.25,0-.376,0a8.592,8.592,0,0,0-8.344,10.628,8.1,8.1,0,0,0,2.619,4.416A8.12,8.12,0,0,1,2560.97,426.576Z" transform="translate(-2560.386 -415.609)" fill="#d7f5ff"/>
              </g>
              <g id="Group_80375" data-name="Group 80375" transform="translate(38.179 9.79)">
                <path id="Path_35114" data-name="Path 35114" d="M2478.543,419.682l.975-.945a11.739,11.739,0,0,0,.809-.894c.213-.253.414-.491.634-.709a4.4,4.4,0,0,1,3.354-1.212c.254,0,.535.014.838.036v-.2a.717.717,0,0,0-.007-.108c-.46-.043-.839-.062-1.191-.062a4.4,4.4,0,0,0-3.353,1.212c-.22.218-.421.457-.634.709a11.641,11.641,0,0,1-.81.893l-.616.6Z" transform="translate(-2473.896 -415.586)" fill="#d7f5ff"/>
                <path id="Path_35115" data-name="Path 35115" d="M2469.886,416.961a.881.881,0,0,1,.014-.176.8.8,0,0,1,.146-.011c.672.012,1.315.018,1.957.018.606,0,1.212-.006,1.818-.014,0-.07,0-.141,0-.211a.725.725,0,0,0,0-.117.98.98,0,0,0-.149-.009h0q-1.012.015-2.025.016c-.642,0-1.284-.006-1.957-.018a.8.8,0,0,0-.146.011.884.884,0,0,0-.013.175c.013,5.316.013,10.708,0,16.024a.878.878,0,0,0,.013.178.793.793,0,0,0,.143.01h.2C2469.9,427.567,2469.9,422.227,2469.886,416.961Z" transform="translate(-2469.528 -415.999)" fill="#d7f5ff"/>
              </g>
              <g id="Group_80376" data-name="Group 80376" transform="translate(0 2.213)">
                <path id="Path_35116" data-name="Path 35116" d="M2406.223,416.738l.3,0c.343,0,.686.008,1.029.015s.7.015,1.056.015a10.924,10.924,0,0,0,2.778-.3,3.132,3.132,0,0,0,2.3-2,3.358,3.358,0,0,0-.216-2.942,3.288,3.288,0,0,0-.767-.864,3.281,3.281,0,0,1,.408.529,3.36,3.36,0,0,1,.215,2.942,3.132,3.132,0,0,1-2.3,2,10.925,10.925,0,0,1-2.778.3c-.352,0-.7-.008-1.055-.015s-.687-.016-1.03-.016l-.3,0a1.074,1.074,0,0,1-.5-.12A.973.973,0,0,0,2406.223,416.738Z" transform="translate(-2400.261 -405.623)" fill="#d7f5ff"/>
                <path id="Path_35117" data-name="Path 35117" d="M2395.833,416.377s0-11.751,0-14.744c0-.114,0-.279.006-.4.12-.007.286-.007.4-.007l4.909-.005c1.52,0,3.041,0,4.561.023a11.061,11.061,0,0,1,4.393.865,6.694,6.694,0,0,1,1.685,1.052,6.457,6.457,0,0,0-2.044-1.388,11.072,11.072,0,0,0-4.393-.864q-2.28-.027-4.56-.023l-4.91.006c-.114,0-.281,0-.4.007-.007.12-.007.285-.007.4,0,2.992,0,14.744,0,14.744,0,2.983,0,5.967-.012,8.951a2.791,2.791,0,0,0,.018.29.91.91,0,0,0,.256.023h.085C2395.837,422.329,2395.835,419.353,2395.833,416.377Z" transform="translate(-2395.462 -400.887)" fill="#d7f5ff"/>
              </g>
            </g>
          </g>
          <g id="Group_80380" data-name="Group 80380" transform="translate(125.713 53.972)">
            <path id="Path_35118" data-name="Path 35118" d="M2662.209,448.791a11.348,11.348,0,0,1-8.285-3.446,11.807,11.807,0,0,1-3.415-7.574c-.013-.17-.028-.34-.043-.51a14.067,14.067,0,0,1-.008-3.284,15.48,15.48,0,0,1,3.693-7.8,22.787,22.787,0,0,1,5.993-5.149,6.707,6.707,0,0,1-4.79-4.72c-1.234.884-2.529,1.735-3.914,2.575a30.411,30.411,0,0,1-7.352,3.376,14.656,14.656,0,0,1-4.115.629c-.341,0-.685-.014-1.021-.043a6.131,6.131,0,0,1-5.556-5.557,8.914,8.914,0,0,1,2.194-6.737,27.015,27.015,0,0,1,3.807-3.637c.294-1.019.613-2,.941-2.959a6.766,6.766,0,0,1-1.154.1,7.4,7.4,0,0,1-2.342-.387c-3.247-1.081-5.175-3.053-5.733-5.862a8.4,8.4,0,0,1,.542-4.615c1.312-3.684,4.09-6.37,8.258-7.986a28.3,28.3,0,0,1,5.42-1.4,18.142,18.142,0,0,1,2.8-.211c.4-.007.782-.013,1.144-.041.094-.006.18-.01.266-.01l.951,0c.148,0,.718-.008.718-.008a14.925,14.925,0,0,1,5.964,1.439,19.259,19.259,0,0,1,6.1,4.076,13.048,13.048,0,0,1,3.656,6.568l.1.455a15.28,15.28,0,0,1,.344,1.982,10.551,10.551,0,0,1,.017,1.757c.121-.007.243-.01.364-.01h.039a4.639,4.639,0,0,1,3.872-2.128,4.775,4.775,0,0,1,1.94.42,4.846,4.846,0,0,1,2.815,3.314,4.942,4.942,0,0,1,1.054-.111l.154,0a5.154,5.154,0,0,1,2.392.656c.223-.637.469-1.284.749-1.936l.036-.083a8.813,8.813,0,0,1,1.729-2.825,4.77,4.77,0,0,1,3.506-1.61,5.668,5.668,0,0,1,2.763.806,4.9,4.9,0,0,1,2.438,5.33,20.391,20.391,0,0,1-2.343,6.14l-.176.341a35.113,35.113,0,0,0-1.725,4.255l-.052.147c-.157.437-.313.874-.474,1.309-.117.318-.229.638-.335.953a67.96,67.96,0,0,1,9.571.732c.427.067.857.126,1.288.186.666.092,1.422.2,2.18.333l.52.092a20.927,20.927,0,0,1,6.041,1.735,5.484,5.484,0,0,1,3.107,3.822,4.535,4.535,0,0,1-1.265,3.977,5.32,5.32,0,0,1-3.948,1.655,9.921,9.921,0,0,1-3.677-.887c-.17-.069-.324-.131-.466-.182a46.97,46.97,0,0,0-9.292-1.954l-.744-.107a19.3,19.3,0,0,0-2.741-.176c-.639,0-1.324.022-2.157.069-.393.022-.764.048-1.12.079-.417,1.431-.848,2.9-1.3,4.35-1.2,3.842-2.724,8.268-5.573,12.171a19.262,19.262,0,0,1-9.846,7.387A15.245,15.245,0,0,1,2662.209,448.791Z" transform="translate(-2630.978 -383.536)" fill="#04aef9"/>
            <path id="Path_35119" data-name="Path 35119" d="M2708.787,423.212a4.147,4.147,0,0,0-2.368-2.828,19.85,19.85,0,0,0-5.665-1.611l-.523-.093c-.719-.129-1.433-.228-2.125-.324-.438-.061-.877-.121-1.312-.19a71.6,71.6,0,0,0-11.064-.726h-.168c.289-.958.582-1.883.919-2.8.177-.477.348-.956.519-1.435a35.988,35.988,0,0,1,1.8-4.43l.176-.341a19.3,19.3,0,0,0,2.208-5.737,3.509,3.509,0,0,0-1.745-3.895,4.315,4.315,0,0,0-2.1-.636,3.487,3.487,0,0,0-2.515,1.188,7.552,7.552,0,0,0-1.458,2.419l-.035.079a38.173,38.173,0,0,0-1.4,3.976,3.205,3.205,0,0,0-.292-.494,3.454,3.454,0,0,0-2.741-1.37l-.123,0a3.29,3.29,0,0,0-2.547,1.143c.019-.053.036-.106.054-.159a3.451,3.451,0,0,0-1.934-4.306,3.271,3.271,0,0,0-4.31,1.532c-.066.117-.131.235-.2.355a5.176,5.176,0,0,0-.789-.061,5.248,5.248,0,0,0-.837.068,7.272,7.272,0,0,0-1.208.312,9.751,9.751,0,0,0,.295-3.376,14.066,14.066,0,0,0-.318-1.81c-.035-.157-.071-.315-.1-.472a11.705,11.705,0,0,0-3.286-5.879,17.914,17.914,0,0,0-5.67-3.783,13.665,13.665,0,0,0-5.42-1.327l-.23,0c-.165,0-.329.006-.494.006l-.944,0c-.054,0-.109,0-.163.006-.387.029-.793.037-1.222.044a16.735,16.735,0,0,0-2.593.19,27.072,27.072,0,0,0-5.159,1.326c-3.778,1.464-6.287,3.876-7.458,7.166a7.1,7.1,0,0,0-.489,3.884c.685,3.449,3.795,4.484,4.817,4.825a6.04,6.04,0,0,0,1.908.317,5.288,5.288,0,0,0,1.649-.259,2.454,2.454,0,0,0,.212-4.675l-.1-.042a8.6,8.6,0,0,0-.906-.334c-.568-.166-.753-.366-.768-.408a1.432,1.432,0,0,1,.316-.91,6.946,6.946,0,0,1,2.3-2.061,11.113,11.113,0,0,1,3.97-1.54l-.113.312q-.35.988-.708,1.975c-.31.862-.62,1.724-.925,2.588-.244.694-.482,1.389-.72,2.085-.3.868-.594,1.735-.9,2.6-.609,1.7-1.238,3.461-1.757,5.272a1.24,1.24,0,0,1-.451.7,25.743,25.743,0,0,0-3.628,3.458,7.584,7.584,0,0,0-1.882,5.725,4.756,4.756,0,0,0,4.3,4.318c.3.025.6.038.905.038a13.31,13.31,0,0,0,3.731-.574,29.108,29.108,0,0,0,7.023-3.232,57.224,57.224,0,0,0,5.686-3.912,6.165,6.165,0,0,0,.022.974c.248,2.382,2.04,4.951,4.874,5.021l.213,0a7.3,7.3,0,0,0,5.124-2.006c.185.193.366.368.532.528l.2.2a4.078,4.078,0,0,0,.742.574c-1.214.425-2.4.875-3.543,1.316a22.206,22.206,0,0,0-9.364,6.646,14.168,14.168,0,0,0-3.4,7.123,12.813,12.813,0,0,0,.015,2.972c.015.176.031.352.045.527a10.444,10.444,0,0,0,3.015,6.706,10.017,10.017,0,0,0,7.313,3.043,13.873,13.873,0,0,0,4.1-.665,17.917,17.917,0,0,0,9.142-6.884c2.725-3.734,4.2-8.034,5.371-11.772.512-1.638,1-3.3,1.466-4.914l.088-.3c.649-.076,1.344-.135,2.1-.177.858-.048,1.568-.071,2.234-.071a20.653,20.653,0,0,1,2.937.19l.738.106a47.988,47.988,0,0,1,9.566,2.022c.158.056.329.125.512.2a8.637,8.637,0,0,0,3.167.789A3.974,3.974,0,0,0,2707.88,426,3.194,3.194,0,0,0,2708.787,423.212Z" transform="translate(-2632.272 -384.829)" fill="#fff"/>
            <g id="Group_80379" data-name="Group 80379" transform="translate(3.579 3.577)">
              <path id="Path_35120" data-name="Path 35120" d="M2700.823,430.254a4.728,4.728,0,0,1-2.1.793,1.786,1.786,0,0,1-1.609-.77c-.321-.471-.643-.469-1.077-.138-.789.6-1.632,1.125-2.471,1.657a2.729,2.729,0,0,1-3.07-.255,5.292,5.292,0,0,1-1.68-2.253c-.13-.46-.391-.454-.685-.1-.316.383-.649.75-.971,1.128a5.129,5.129,0,0,1-4.22,1.876c-1.62-.04-2.594-1.656-2.739-3.048a5.147,5.147,0,0,1,.664-2.863,21.039,21.039,0,0,1,5.333-7,5.611,5.611,0,0,1,2.658-1.251,3.217,3.217,0,0,1,1.829.26c.474.2.715.087.9-.365a11.625,11.625,0,0,1,.645-1.338,1.1,1.1,0,0,1,1.508-.61,1.244,1.244,0,0,1,.735,1.6c-.387,1.163-.827,2.309-1.254,3.459a28.755,28.755,0,0,0-1.859,7.039,2.844,2.844,0,0,0,.057.963c.232.931.808,1.194,1.7.861a14.675,14.675,0,0,0,2.385-1.419.881.881,0,0,0,.434-1.049,5.755,5.755,0,0,1,.323-2.667,18.279,18.279,0,0,1,1.466-4.195c.284-.564.6-1.1,1.382-1.079.89.029,1.388.6,1.133,1.451-.518,1.731-1.072,3.452-1.632,5.17a3.191,3.191,0,0,0-.119,1.151c.027.63.493.925,1.007.55a9.185,9.185,0,0,0,3.691-4.368c.835-2.46,1.423-5,2.451-7.4a5.85,5.85,0,0,1,1.057-1.841c.614-.639,1.021-.67,1.965-.149a1.338,1.338,0,0,1,.637,1.6,18.822,18.822,0,0,1-2.17,5.436,53.85,53.85,0,0,0-2.427,6.109c-.643,1.736-1.131,3.52-1.669,5.288-.11.36-.016.5.327.494a78.445,78.445,0,0,1,13.378.679c1.125.177,2.265.3,3.387.5a20.174,20.174,0,0,1,5.593,1.506c.791.4,1.712,1.231.853,2.134-1.138,1.193-3.091.117-4.295-.315a53.857,53.857,0,0,0-10.734-2.234,28.082,28.082,0,0,0-5.608-.138c-1.061.06-2.145.157-3.21.32a.679.679,0,0,0-.623.548c-.592,2.024-1.171,4.052-1.8,6.064-1.226,3.916-2.6,7.771-5.048,11.131a15.76,15.76,0,0,1-8.018,6.08c-3.3,1.027-6.577.79-9.2-1.833a8.206,8.206,0,0,1-2.377-5.317,13.935,13.935,0,0,1-.075-3.027,12.147,12.147,0,0,1,2.918-6.034,19.919,19.919,0,0,1,8.452-5.987,69.621,69.621,0,0,1,7.14-2.432c1.683-.446,3.394-.79,5.1-1.14.6-.122.944-.328,1.037-1.007A17.456,17.456,0,0,1,2700.823,430.254Zm-22.971,19.769a10.117,10.117,0,0,0,.7,4.162,4.752,4.752,0,0,0,1.864,2.255,7.276,7.276,0,0,0,5.22.578,11.533,11.533,0,0,0,7.882-5.6,43.677,43.677,0,0,0,4.164-9.987c.445-1.369.819-2.76,1.246-4.134.109-.352.349-.725.1-1.041s-.691-.187-1.036-.094c-1.371.366-2.775.57-4.143.958a42.028,42.028,0,0,0-5.913,2.034,21.6,21.6,0,0,0-7.5,5.416C2678.965,446.259,2677.7,448.055,2677.852,450.023Zm5.333-21.476c-.012,1.263.077,1.312.964.857a3.678,3.678,0,0,0,.874-.661,23.554,23.554,0,0,0,2.042-2.169,16.709,16.709,0,0,0,3.326-5.644c.187-.634-.006-.806-.674-.705a4.252,4.252,0,0,0-2.222,1.243,15.788,15.788,0,0,0-3.05,4A9.525,9.525,0,0,0,2683.185,428.547Z" transform="translate(-2656.139 -401.722)" fill="#04aef9"/>
              <path id="Path_35121" data-name="Path 35121" d="M2652.905,390.48c.5,0,.995.01,1.491,0a11.232,11.232,0,0,1,4.728,1.145,15.636,15.636,0,0,1,4.979,3.312,9.484,9.484,0,0,1,2.693,4.779,17.918,17.918,0,0,1,.384,2.032,10.313,10.313,0,0,1-1.679,6.007,22.961,22.961,0,0,1-5.166,6.087,52.84,52.84,0,0,1-7.385,5.343,27.215,27.215,0,0,1-6.494,3,10.535,10.535,0,0,1-3.838.458,2.586,2.586,0,0,1-2.3-2.336,5.379,5.379,0,0,1,1.383-4.106,23.523,23.523,0,0,1,3.324-3.157,3.433,3.433,0,0,0,1.18-1.8c.5-1.736,1.1-3.436,1.713-5.136.558-1.559,1.078-3.132,1.628-4.693.535-1.522,1.091-3.037,1.63-4.557a16.462,16.462,0,0,0,.545-1.648,1.364,1.364,0,0,1,2.046-1,1.74,1.74,0,0,1,.948,2.107c-.363,1.081-.765,2.15-1.16,3.221q-1.036,2.817-2.083,5.629-.641,1.723-1.3,3.44c-.078.2-.213.428-.049.606.181.2.35-.045.51-.12a31.554,31.554,0,0,1,4.018-1.611c.2-.061.456-.224.594,0,.164.264-.116.426-.29.571-1.539,1.288-3.033,2.638-4.644,3.83a8.082,8.082,0,0,0-2.482,3.55c-.362.829-.729,1.657-1.128,2.469-.262.534-.649.521-1.045,0-.514-.671-.561-.669-1.088,0-.281.356-.581.7-.861,1.053-.118.149-.262.318-.149.526s.33.174.522.183a5.959,5.959,0,0,0,2.448-.549,38.568,38.568,0,0,0,7.434-4.153,37.262,37.262,0,0,0,7.036-6.278,13.292,13.292,0,0,0,2.973-5.033,5.985,5.985,0,0,0-.343-4.112,9.732,9.732,0,0,0-5.489-5.2,14.054,14.054,0,0,0-4.111-.806,20.447,20.447,0,0,0-4.464,0,13.356,13.356,0,0,0-5.5,1.957,9.173,9.173,0,0,0-2.975,2.734c-1.168,1.814-.95,3.85,1.684,4.621a7.926,7.926,0,0,1,.785.3c.12.049.253.121.248.269-.005.182-.164.232-.312.281a3.477,3.477,0,0,1-2.17-.056c-1.575-.524-2.988-1.326-3.353-3.164a5.117,5.117,0,0,1,.4-2.716,9.8,9.8,0,0,1,6.181-5.853,24.616,24.616,0,0,1,4.74-1.209C2650.516,390.478,2651.708,390.569,2652.905,390.48Z" transform="translate(-2637.921 -390.476)" fill="#04aef9"/>
            </g>
          </g>
          <g id="Group_80383" data-name="Group 80383" transform="translate(129.714 57.888)">
            <g id="Group_80381" data-name="Group 80381" transform="translate(19.381 11.966)">
              <path id="Path_35122" data-name="Path 35122" d="M2701.748,442.929a4.3,4.3,0,0,0,1.344,1.841l.216.209a1.7,1.7,0,0,0,.787.4,1.541,1.541,0,0,1-.464-.294l-.216-.209a4.3,4.3,0,0,1-1.344-1.841c-.163-.578-.519-.676-.7-.688A.967.967,0,0,1,2701.748,442.929Z" transform="translate(-2688.465 -427.914)" fill="#d7f5ff"/>
              <path id="Path_35123" data-name="Path 35123" d="M2720.975,428.631a1.02,1.02,0,0,1-.137-.014.936.936,0,0,0,.46.122,1.22,1.22,0,0,0,.714-.255,9.63,9.63,0,0,0,3.855-4.591c.3-.89.575-1.8.84-2.686a43.5,43.5,0,0,1,1.6-4.679l.036-.085a5.177,5.177,0,0,1,.929-1.618c.3-.308.453-.371.6-.371a.717.717,0,0,1,.12.015,1.221,1.221,0,0,0-.443-.123c-.144,0-.3.063-.6.371a5.186,5.186,0,0,0-.929,1.618l-.037.085a43.5,43.5,0,0,0-1.6,4.679c-.264.882-.537,1.8-.839,2.686a9.635,9.635,0,0,1-3.856,4.591A1.219,1.219,0,0,1,2720.975,428.631Z" transform="translate(-2697.898 -414.346)" fill="#d7f5ff"/>
              <path id="Path_35124" data-name="Path 35124" d="M2697.881,425.433a.714.714,0,0,1,.226.19,1.139,1.139,0,0,1,.067,1.007,17.206,17.206,0,0,1-3.41,5.8,23.786,23.786,0,0,1-2.08,2.212,4.1,4.1,0,0,1-.984.74,2.047,2.047,0,0,1-.89.313c-.021,0-.036,0-.056-.006a.656.656,0,0,0,.378.114,2.051,2.051,0,0,0,.891-.313,4.117,4.117,0,0,0,.984-.74,23.908,23.908,0,0,0,2.08-2.212,17.2,17.2,0,0,0,3.409-5.8,1.137,1.137,0,0,0-.066-1.007A.793.793,0,0,0,2697.881,425.433Z" transform="translate(-2683.323 -419.718)" fill="#d7f5ff"/>
              <path id="Path_35125" data-name="Path 35125" d="M2689.58,478.291a12.63,12.63,0,0,0,2.217-.225,11.96,11.96,0,0,0,8.19-5.8,43.246,43.246,0,0,0,4.139-9.867l.073-.223c.255-.786.488-1.58.72-2.373.173-.59.345-1.18.527-1.767.02-.063.045-.127.07-.191a1.2,1.2,0,0,0-.054-1.274.992.992,0,0,0-.611-.351,1,1,0,0,1,.288.243,1.2,1.2,0,0,1,.053,1.274c-.025.064-.05.128-.069.191-.183.587-.355,1.176-.528,1.767-.232.793-.464,1.587-.719,2.373l-.073.223a43.255,43.255,0,0,1-4.139,9.867,11.96,11.96,0,0,1-8.19,5.8,12.623,12.623,0,0,1-2.217.225h0a7.04,7.04,0,0,1-1.769-.212,6.778,6.778,0,0,0,2.092.32Z" transform="translate(-2681.74 -434.634)" fill="#d7f5ff"/>
              <path id="Path_35126" data-name="Path 35126" d="M2729.267,451.749a1.162,1.162,0,0,1-.164-.014.929.929,0,0,0,.487.122c.91-.012,1.792-.02,2.671-.02a69.124,69.124,0,0,1,10.654.694c.452.071.906.134,1.36.2.665.092,1.351.187,2.017.306l.536.1a25.817,25.817,0,0,1,3.491.79,23.492,23.492,0,0,0-3.814-.9l-.536-.1c-.666-.119-1.352-.214-2.017-.306-.454-.063-.908-.126-1.36-.2a69.092,69.092,0,0,0-10.653-.694C2731.059,451.729,2730.177,451.737,2729.267,451.749Z" transform="translate(-2701.903 -432.459)" fill="#d7f5ff"/>
              <path id="Path_35127" data-name="Path 35127" d="M2717.18,444.271a1.411,1.411,0,0,1,.464.445,1.2,1.2,0,0,0,.794.525,1.207,1.207,0,0,1-.471-.417A1.167,1.167,0,0,0,2717.18,444.271Z" transform="translate(-2696.125 -428.845)" fill="#d7f5ff"/>
              <path id="Path_35128" data-name="Path 35128" d="M2679.039,472.213a7.716,7.716,0,0,1-2.243-5.026c-.015-.187-.031-.372-.047-.559a10.35,10.35,0,0,1-.031-2.37,11.5,11.5,0,0,1,2.819-5.806,19.318,19.318,0,0,1,8.262-5.849,69.418,69.418,0,0,1,7.093-2.417c1.574-.418,3.2-.752,4.781-1.074l.293-.059a1.526,1.526,0,0,0,1.4-1.394,9.443,9.443,0,0,1,.375-1.484c.071-.228.141-.456.2-.684a.458.458,0,0,0-.443-.582c-.008,0-.015,0-.022.005a.46.46,0,0,1,.142.47c-.063.228-.133.456-.2.683a9.418,9.418,0,0,0-.375,1.484,1.527,1.527,0,0,1-1.4,1.395l-.292.059c-1.577.323-3.208.657-4.782,1.074a69.543,69.543,0,0,0-7.092,2.417,19.318,19.318,0,0,0-8.262,5.849,11.5,11.5,0,0,0-2.819,5.806,10.363,10.363,0,0,0,.031,2.37c.017.187.033.372.048.559a7.715,7.715,0,0,0,2.244,5.026,7.543,7.543,0,0,0,3.257,1.961A7.6,7.6,0,0,1,2679.039,472.213Z" transform="translate(-2676.336 -429.154)" fill="#d7f5ff"/>
              <path id="Path_35129" data-name="Path 35129" d="M2767.386,459.128c-.216-.087-.419-.167-.605-.235-.107-.038-.213-.07-.32-.106.186.066.388.147.6.233.364.146.753.3,1.14.416C2767.924,459.34,2767.648,459.233,2767.386,459.128Z" transform="translate(-2720.003 -435.878)" fill="#d7f5ff"/>
              <path id="Path_35130" data-name="Path 35130" d="M2705.132,421.06a1.443,1.443,0,0,0,.566.134,1.013,1.013,0,0,0,.941-.746,11.063,11.063,0,0,1,.618-1.284c.187-.327.395-.493.618-.493.014,0,.03,0,.045.006-.022-.011-.037-.028-.061-.039a.769.769,0,0,0-.306-.075c-.223,0-.431.166-.618.493a11.07,11.07,0,0,0-.618,1.284,1.014,1.014,0,0,1-.941.746,1.153,1.153,0,0,1-.259-.032Z" transform="translate(-2690.281 -416.389)" fill="#d7f5ff"/>
              <path id="Path_35131" data-name="Path 35131" d="M2708.025,436.139a1.55,1.55,0,0,1-.3-.033,1.452,1.452,0,0,0,.621.14,2.367,2.367,0,0,0,.823-.168,8.3,8.3,0,0,0,1.75-.99c.235-.16.47-.319.712-.467a1.333,1.333,0,0,0,.643-1.551,3.9,3.9,0,0,1,.188-1.91c.048-.184.1-.365.136-.546a17.729,17.729,0,0,1,1.428-4.09c.294-.583.486-.826.92-.826a1.7,1.7,0,0,1,.218.021,1.148,1.148,0,0,0-.541-.129c-.434,0-.626.243-.92.826a17.719,17.719,0,0,0-1.428,4.09c-.041.181-.089.362-.137.546a3.9,3.9,0,0,0-.188,1.91,1.333,1.333,0,0,1-.643,1.551c-.242.147-.476.307-.711.466a8.314,8.314,0,0,1-1.75.99A2.373,2.373,0,0,1,2708.025,436.139Z" transform="translate(-2691.546 -419.794)" fill="#d7f5ff"/>
              <path id="Path_35132" data-name="Path 35132" d="M2687.33,435.919a3.025,3.025,0,0,1-1.6-2.472,4.632,4.632,0,0,1,.616-2.608,20.4,20.4,0,0,1,5.212-6.855A5.143,5.143,0,0,1,2694,422.83a2.5,2.5,0,0,1,.405-.034,2.678,2.678,0,0,1,.717.106,2.87,2.87,0,0,0-1.041-.213,2.49,2.49,0,0,0-.4.034,5.144,5.144,0,0,0-2.443,1.154,20.406,20.406,0,0,0-5.212,6.855,4.636,4.636,0,0,0-.616,2.608A2.867,2.867,0,0,0,2687.33,435.919Z" transform="translate(-2680.722 -418.388)" fill="#d7f5ff"/>
            </g>
            <g id="Group_80382" data-name="Group 80382">
              <path id="Path_35133" data-name="Path 35133" d="M2662.611,426a.606.606,0,0,1,.057-.04c.946-.444,1.768-.8,2.531-1.09l.462-.394a33.192,33.192,0,0,0-3.316,1.376.634.634,0,0,0-.058.04.836.836,0,0,1-.505.2l-.033,0a.628.628,0,0,0,.356.111A.839.839,0,0,0,2662.611,426Z" transform="translate(-2649.888 -407.29)" fill="#d7f5ff"/>
              <path id="Path_35134" data-name="Path 35134" d="M2663.745,396.763a10.225,10.225,0,0,1,5.735,5.448,6.437,6.437,0,0,1,.361,4.421,13.567,13.567,0,0,1-3.071,5.208,37.507,37.507,0,0,1-7.123,6.353,39.256,39.256,0,0,1-7.524,4.2,6.748,6.748,0,0,1-2.45.585c-.062,0-.125,0-.187,0l-.068,0a1.859,1.859,0,0,1-.226-.017,1.117,1.117,0,0,0,.549.125l.069,0c.062,0,.125,0,.187,0a6.747,6.747,0,0,0,2.45-.585,39.241,39.241,0,0,0,7.524-4.2,37.476,37.476,0,0,0,7.123-6.353,13.567,13.567,0,0,0,3.071-5.208,6.437,6.437,0,0,0-.361-4.421,10.223,10.223,0,0,0-5.735-5.448c-.231-.1-.465-.177-.7-.25C2663.494,396.665,2663.62,396.71,2663.745,396.763Z" transform="translate(-2643.804 -393.792)" fill="#d7f5ff"/>
              <path id="Path_35135" data-name="Path 35135" d="M2652.507,441.8a2.278,2.278,0,0,1,.549.569.883.883,0,0,0,.191.195.624.624,0,0,0,.075-.122l.011-.023C2653.071,442.073,2652.847,441.812,2652.507,441.8Z" transform="translate(-2645.41 -415.68)" fill="#d7f5ff"/>
              <path id="Path_35136" data-name="Path 35136" d="M2641.939,403.419c-1.712-.614-2.57-1.439-2.826-2.736a4.746,4.746,0,0,1,.384-2.472c.914-2.566,2.848-4.39,5.914-5.579a24.248,24.248,0,0,1,4.651-1.185,14.225,14.225,0,0,1,2.19-.152c.456-.009.91-.017,1.367-.051l.892.005c.192,0,.384,0,.577-.006l.165,0a8.726,8.726,0,0,1,2.665.46,9.08,9.08,0,0,0-2.988-.568l-.165,0c-.193,0-.385.006-.577.006l-.891-.005c-.457.034-.911.042-1.368.051a14.233,14.233,0,0,0-2.19.152,24.253,24.253,0,0,0-4.651,1.185c-3.066,1.188-5,3.012-5.914,5.578a4.749,4.749,0,0,0-.384,2.472c.268,1.353,1.179,2.2,3.046,2.818C2641.87,403.4,2641.9,403.408,2641.939,403.419Z" transform="translate(-2638.739 -391.133)" fill="#d7f5ff"/>
              <path id="Path_35137" data-name="Path 35137" d="M2643.685,423.905a4.89,4.89,0,0,1,1.279-3.768,23.175,23.175,0,0,1,3.26-3.094,3.871,3.871,0,0,0,1.333-2.03c.5-1.733,1.109-3.449,1.7-5.108.313-.875.615-1.755.917-2.635.236-.688.471-1.375.712-2.061.3-.867.616-1.732.927-2.6q.352-.979.7-1.959l.126-.349a12.5,12.5,0,0,0,.432-1.345.936.936,0,0,1,.86-.828,1.1,1.1,0,0,1,.229.029l0,0a1.324,1.324,0,0,0-.548-.134.935.935,0,0,0-.859.828,12.664,12.664,0,0,1-.433,1.345l-.126.349q-.349.98-.7,1.959-.468,1.3-.927,2.6c-.242.686-.477,1.373-.713,2.061-.3.879-.6,1.759-.917,2.635-.593,1.66-1.207,3.376-1.7,5.108a3.871,3.871,0,0,1-1.332,2.03,23.185,23.185,0,0,0-3.261,3.094,4.888,4.888,0,0,0-1.279,3.768,2.141,2.141,0,0,0,1.6,1.871A2.158,2.158,0,0,1,2643.685,423.905Z" transform="translate(-2640.968 -394.472)" fill="#d7f5ff"/>
            </g>
          </g>
          <path id="Path_35138" data-name="Path 35138" d="M2586.037,429.883l3.923-2.058v6.593Z" transform="translate(-2483.49 -351.024)" fill="#04aef9"/>
        </g>
      </g>
    </g>
  </g>
</svg>
