<svg xmlns="http://www.w3.org/2000/svg" width="24.038" height="24.04" viewBox="0 0 24.038 24.04"><defs><style>.a{fill:#fedc23;}</style></defs><g transform="translate(-262.098 206.092)"><path class="a" d="M349.428-125.607a6.459,6.459,0,0,0-6.41,6.644,6.416,6.416,0,0,0,6.446,6.312,6.483,6.483,0,0,0,6.509-6.523A6.511,6.511,0,0,0,349.428-125.607Zm0,11.106a4.577,4.577,0,0,1-4.559-4.633,4.6,4.6,0,0,1,4.528-4.609,4.64,4.64,0,0,1,4.732,4.63A4.6,4.6,0,0,1,349.424-114.5Z" transform="translate(-75.363 -74.958)"/><path class="a" d="M549.117-44.845c-.808-.039-1.619-.022-2.43-.022a2.546,2.546,0,0,0-.509.051.9.9,0,0,0-.723.944.88.88,0,0,0,.864.85c.467.013.934,0,1.4,0,0,.01,0,.021,0,.031.217,0,.434,0,.65,0s.455-.019.683-.029c.6-.026.961-.328.977-.826A.87.87,0,0,0,549.117-44.845Z" transform="translate(-263.897 -150.15)"/><path class="a" d="M265.785-42.975a.909.909,0,0,0,.915-.882.908.908,0,0,0-.894-.938c-.476-.035-.958-.007-1.437-.007v-.019c-.388,0-.776,0-1.165,0a2.006,2.006,0,0,0-.2.015.919.919,0,0,0-.9.9.884.884,0,0,0,.883.935A20.457,20.457,0,0,0,265.785-42.975Z" transform="translate(0 -150.197)"/><path class="a" d="M423.709-201.8a.855.855,0,0,0,.9.247.862.862,0,0,0,.65-.716,9.114,9.114,0,0,0,.016-1.537c0-.49.036-.984-.009-1.47a.851.851,0,0,0-.982-.816.877.877,0,0,0-.833.873,27.854,27.854,0,0,0,.008,2.906A.737.737,0,0,0,423.709-201.8Z" transform="translate(-150.241 0)"/><path class="a" d="M425.352,79.342c0-.457,0-.913,0-1.37a.825.825,0,0,0-.026-.169.928.928,0,0,0-.928-.752.9.9,0,0,0-.878.843,27.988,27.988,0,0,0,0,2.908.88.88,0,0,0,.9.844.937.937,0,0,0,.941-1c.019-.433,0-.868,0-1.3Z" transform="translate(-150.302 -263.699)"/><path class="a" d="M530.449-122.34c.826-.44,1.633-.917,2.434-1.4a.89.89,0,0,0,.328-1.25.9.9,0,0,0-1.228-.331c-.822.448-1.627.927-2.433,1.4a.9.9,0,0,0-.453.766A.915.915,0,0,0,530.449-122.34Z" transform="translate(-248.664 -75.112)"/><path class="a" d="M485.413-180.609a.858.858,0,0,0,.731-.38c.527-.829,1.028-1.675,1.478-2.549a.862.862,0,0,0-.359-1.184.863.863,0,0,0-1.187.251,26.664,26.664,0,0,0-1.515,2.644A.917.917,0,0,0,485.413-180.609Z" transform="translate(-207.121 -19.778)"/><path class="a" d="M532.88,17.931q-.819-.5-1.649-.98a7.168,7.168,0,0,0-.876-.465.924.924,0,0,0-1.261.913.807.807,0,0,0,.355.628,23.435,23.435,0,0,0,2.73,1.566.609.609,0,0,0,.528,0,.937.937,0,0,0,.621-.795A.876.876,0,0,0,532.88,17.931Z" transform="translate(-248.662 -207.23)"/><path class="a" d="M344.391-181.089a.927.927,0,0,0,.754.492A.91.91,0,0,0,346-181.94c-.443-.837-.921-1.656-1.415-2.463a.888.888,0,0,0-1.259-.292.9.9,0,0,0-.306,1.234C343.461-182.662,343.924-181.874,344.391-181.089Z" transform="translate(-75.248 -19.791)"/><path class="a" d="M344.5,61.178c-.474.768-.91,1.558-1.36,2.341a.935.935,0,0,0-.145.486.925.925,0,0,0,.594.878.838.838,0,0,0,1.016-.277,24.894,24.894,0,0,0,1.562-2.733.67.67,0,0,0-.031-.624A.913.913,0,0,0,344.5,61.178Z" transform="translate(-75.338 -248.475)"/><path class="a" d="M286.514,16.5c-.8.431-1.59.9-2.372,1.366a.912.912,0,0,0-.348,1.249.878.878,0,0,0,1.187.359,27.615,27.615,0,0,0,2.548-1.469.922.922,0,0,0,.374-.867A.893.893,0,0,0,286.514,16.5Z" transform="translate(-20.095 -207.184)"/><path class="a" d="M284.387-123.875q1.182.692,2.38,1.358a.813.813,0,0,0,.55.155.975.975,0,0,0,.789-.681.85.85,0,0,0-.357-1c-.839-.51-1.682-1.017-2.553-1.469a.878.878,0,0,0-1.271.875A.829.829,0,0,0,284.387-123.875Z" transform="translate(-20.328 -74.954)"/><path class="a" d="M486.439,61.272a.855.855,0,0,0-.763-.471.891.891,0,0,0-.845,1.288c.441.812.913,1.608,1.375,2.409a.916.916,0,0,0,1.246.43.864.864,0,0,0,.365-1.249C487.382,62.864,486.912,62.066,486.439,61.272Z" transform="translate(-207.342 -248.566)"/></g></svg>