<svg xmlns="http://www.w3.org/2000/svg" xmlns:xlink="http://www.w3.org/1999/xlink" width="288" height="980" viewBox="0 0 288 980"><defs><style>.a{fill:#fff;stroke:#707070;}.b{fill:url(#a);}.c{fill:url(#b);}.d{clip-path:url(#c);}.e{fill:#008fff;}.f{clip-path:url(#e);}.g{opacity:0.345;mix-blend-mode:soft-light;}.g,.q{isolation:isolate;}.h{clip-path:url(#g);}.i{fill:url(#i);}.j{fill:url(#j);}.k{fill:url(#k);}.l{fill:url(#l);}.m{fill:url(#m);}.n{fill:url(#n);}.o{opacity:0.801;fill:url(#o);}.p{opacity:0.2;fill:url(#p);}.q{opacity:0.25;mix-blend-mode:multiply;fill:url(#q);}</style><radialGradient id="a" cx="0.5" cy="0.277" r="0.403" gradientTransform="matrix(1, 0, 0, 1.772, 0, -0.37)" gradientUnits="objectBoundingBox"><stop offset="0" stop-color="#00ceff"/><stop offset="0.512" stop-color="#00b5ff"/><stop offset="1" stop-color="#009dff"/></radialGradient><linearGradient id="b" y1="0.5" x2="1" y2="0.5" gradientUnits="objectBoundingBox"><stop offset="0.005" stop-color="#a11e5c"/><stop offset="0.539" stop-color="#e21c3e"/><stop offset="1" stop-color="#4264ae"/></linearGradient><clipPath id="c"><rect class="a" width="288" height="980" transform="translate(-4078 1451)"/></clipPath><clipPath id="e"><rect class="b" width="1920" height="1080"/></clipPath><clipPath id="g"><rect class="c" width="1920" height="1280" transform="translate(0 0)"/></clipPath><linearGradient id="i" x1="-0.29" y1="0.164" x2="0.901" y2="0.67" xlink:href="#b"/><linearGradient id="j" x1="-0.18" y1="1.081" x2="0.85" y2="0.201" xlink:href="#b"/><linearGradient id="k" x1="0.131" y1="1.292" x2="0.712" y2="0.045" xlink:href="#b"/><linearGradient id="l" x1="0.073" y1="0.328" x2="1.557" y2="0.925" xlink:href="#b"/><linearGradient id="m" x1="-0.276" y1="1.087" x2="0.807" y2="0.268" xlink:href="#b"/><linearGradient id="n" x1="-0.258" y1="1.106" x2="0.719" y2="0.325" xlink:href="#b"/><radialGradient id="o" cx="0.5" cy="0.5" r="0.5" gradientUnits="objectBoundingBox"><stop offset="0" stop-color="#8815dd"/><stop offset="0.424" stop-color="#1e7bd8" stop-opacity="0.576"/><stop offset="1" stop-color="#fff" stop-opacity="0"/></radialGradient><radialGradient id="p" cx="0.5" cy="0.5" r="0.5" gradientUnits="objectBoundingBox"><stop offset="0" stop-color="#152cdd"/><stop offset="1" stop-color="#0f90ee" stop-opacity="0"/></radialGradient><linearGradient id="q" x1="1" y1="0.373" x2="0.478" y2="0.373" gradientUnits="objectBoundingBox"><stop offset="0" stop-color="#151ba7"/><stop offset="0.562" stop-color="#1861d6" stop-opacity="0.447"/><stop offset="1" stop-color="#1a9afd" stop-opacity="0"/></linearGradient></defs><g class="d" transform="translate(4078 -1451)"><rect class="e" width="288" height="2395" transform="translate(-4078 1451)"/><g transform="translate(-4301 1351)"><rect class="b" width="1920" height="1080"/><g class="f"><g class="g" transform="translate(0 -40)"><rect class="c" width="1920" height="1280" transform="translate(0 0)"/><g class="h" transform="translate(-871 142)"><rect class="c" width="1920" height="1280" transform="translate(0 0)"/><circle class="i" cx="432.173" cy="432.173" r="432.173" transform="translate(655.327 -275.478)"/><circle class="j" cx="499.4" cy="499.4" r="499.4" transform="translate(-197.495 523.562)"/><circle class="k" cx="334.214" cy="334.214" r="334.214" transform="translate(1450.525 688.748)"/><circle class="l" cx="119.04" cy="119.04" r="119.04" transform="translate(248.64 156.695)"/><circle class="m" cx="62" cy="62" r="62" transform="translate(1718 379)"/><circle class="n" cx="93.5" cy="93.5" r="93.5" transform="translate(1047 789)"/></g></g></g></g><circle class="o" cx="1113" cy="1113" r="1113" transform="translate(-4768 205)"/><ellipse class="p" cx="197" cy="151" rx="197" ry="151" transform="translate(-4138 1456)"/><rect class="q" width="36" height="2395" transform="translate(-3826 1451)"/></g></svg>